<?xml version="1.0" encoding="UTF-8" standalone="no"?>
<!-- Created with Inkscape (http://www.inkscape.org/) -->

<svg
   width="210mm"
   height="297mm"
   viewBox="0 0 210 297"
   version="1.1"
   id="svg1"
   xml:space="preserve"
   inkscape:version="1.4.2 (f4327f4, 2025-05-13)"
   sodipodi:docname="mia_butterfly.svg"
   xmlns:inkscape="http://www.inkscape.org/namespaces/inkscape"
   xmlns:sodipodi="http://sodipodi.sourceforge.net/DTD/sodipodi-0.dtd"
   xmlns="http://www.w3.org/2000/svg"
   xmlns:svg="http://www.w3.org/2000/svg"><sodipodi:namedview
     id="namedview1"
     pagecolor="#ffffff"
     bordercolor="#000000"
     borderopacity="0.25"
     inkscape:showpageshadow="2"
     inkscape:pageopacity="0.0"
     inkscape:pagecheckerboard="0"
     inkscape:deskcolor="#d1d1d1"
     inkscape:document-units="mm"
     inkscape:zoom="1.6289943"
     inkscape:cx="410.98978"
     inkscape:cy="636.28216"
     inkscape:window-width="2520"
     inkscape:window-height="1574"
     inkscape:window-x="-11"
     inkscape:window-y="2149"
     inkscape:window-maximized="1"
     inkscape:current-layer="layer1" /><defs
     id="defs1" /><g
     inkscape:label="Ebene 1"
     inkscape:groupmode="layer"
     id="layer1"><path
       style="fill:#000000;stroke-width:1.05012"
       d="m 131.87863,245.72355 c -1.85481,-0.37135 -8.91464,-4.03606 -9.76025,-5.06647 -0.31882,-0.38847 -0.94495,-0.70632 -1.39141,-0.70632 -0.62486,0 -3.96003,-1.81402 -4.66373,-2.53663 -0.0642,-0.066 0.0527,-0.4692 0.25992,-0.8961 l 0.3767,-0.77619 -0.6127,0.1063 c -0.34669,0.0601 -0.56802,0.38112 -0.50978,0.73934 l 0.10292,0.63306 -1.27944,-0.87177 c -0.7037,-0.47946 -1.63066,-1.13435 -2.05992,-1.4553 -0.42927,-0.32095 -1.36827,-0.99472 -2.08668,-1.49727 -0.7184,-0.50256 -1.30619,-1.0715 -1.30619,-1.26433 0,-0.19283 -0.15875,-0.3506 -0.35278,-0.3506 -0.19403,0 -0.35278,0.35012 -0.35278,0.77805 0,0.51252 -0.23518,0.77805 -0.68914,0.77805 h -0.68915 l 0.60095,-1.16462 c 0.33053,-0.64054 0.72002,-1.16572 0.86554,-1.16707 0.14552,-8.5e-4 0.26458,-0.23454 0.26458,-0.51819 0,-0.28364 0.43656,-0.9375 0.97014,-1.45301 0.53358,-0.51552 0.78011,-0.69534 0.54785,-0.39962 l -0.42229,0.53765 1.48062,1.18651 c 1.05968,0.84918 1.80552,1.15635 2.62339,1.08042 0.72808,-0.0676 1.52967,0.19772 2.20901,0.73116 1.01855,0.79979 1.13833,1.56253 0.24338,1.54984 -0.28728,-0.004 -0.27166,-0.10972 0.0494,-0.33419 0.33461,-0.23392 0.0538,-0.51166 -0.97728,-0.9666 -1.77176,-0.78177 -2.54689,-0.80764 -1.64513,-0.0549 0.36813,0.30728 0.80343,0.4673 0.96734,0.35559 0.16391,-0.11171 0.57708,-0.0239 0.91817,0.19515 l 0.62015,0.39825 -0.52916,0.0177 -0.52917,0.0177 0.51255,0.35755 c 0.28191,0.19666 0.93461,0.26448 1.45045,0.1507 0.99506,-0.21945 3.30153,0.84392 2.99946,1.38289 -0.2737,0.48836 1.29621,1.23765 2.18129,1.04108 0.43656,-0.0969 0.79375,-0.0112 0.79375,0.19039 0,0.20168 -0.30813,0.36669 -0.68473,0.36669 -0.37661,0 -0.78176,0.1731 -0.90033,0.38468 -0.12613,0.22505 -1.12288,-0.15954 -2.40207,-0.92683 -1.20257,-0.72134 -2.54766,-1.43282 -2.9891,-1.58107 -0.44145,-0.14827 -2.10832,-1.21725 -3.70417,-2.37553 -1.77755,-1.29018 -2.95596,-1.92764 -3.04202,-1.6456 -0.34832,1.14155 5.04518,4.80674 6.80451,4.62405 l 1.0196,-0.10586 -0.18486,0.77954 c -0.11961,0.50438 0.0186,0.85604 0.39152,0.9963 0.317,0.11922 0.8145,0.38235 1.10554,0.58471 0.98242,0.68311 2.99109,1.51626 4.23333,1.75588 l 1.23473,0.23819 -1.14653,-0.65675 c -0.63059,-0.36122 -1.14653,-0.78973 -1.14653,-0.95225 0,-0.64695 0.74226,-0.74552 1.26587,-0.16811 0.30519,0.33654 0.70325,0.51082 0.88456,0.38724 0.53989,-0.36796 4.33996,0.67638 4.81693,1.32378 0.77394,1.0505 0.47288,1.39658 -0.41486,0.47689 -0.4707,-0.48763 -1.02835,-0.76902 -1.23921,-0.62532 -0.21086,0.14371 -0.88339,-0.0138 -1.49449,-0.34996 -0.61111,-0.33618 -1.1692,-0.54719 -1.24019,-0.4689 -0.071,0.0783 0.82582,0.64799 1.99291,1.26601 1.16709,0.61803 2.12407,1.305 2.12662,1.52661 0.007,0.62624 1.5374,0.48644 2.05927,-0.18813 0.25692,-0.33211 0.36193,-0.37663 0.23334,-0.0989 -0.13318,0.28761 0.15847,0.93744 0.67772,1.51005 l 0.91151,1.00517 1.2338,-0.2208 c 0.84707,-0.15158 1.40048,-0.0369 1.76557,0.36562 0.63934,0.70503 0.69701,1.07839 0.10416,0.67433 -0.23518,-0.16028 -0.96834,-0.25126 -1.62924,-0.20218 -0.66988,0.0498 -1.81244,-0.26183 -2.58187,-0.70409 -0.75913,-0.43634 -1.68151,-0.79334 -2.04973,-0.79334 -0.36822,0 -0.88218,-0.21883 -1.14213,-0.48628 -0.25994,-0.26746 -1.02535,-0.82323 -1.70089,-1.23503 -0.67554,-0.41182 -1.32033,-0.89916 -1.43285,-1.083 -0.21871,-0.35729 -1.38893,-0.004 -1.37398,0.41452 0.012,0.33552 4.87524,2.90848 5.49742,2.90848 0.26998,0 0.49087,0.14589 0.49087,0.32419 0,0.1783 0.28575,0.32419 0.635,0.32419 0.34925,0 0.81654,0.20019 1.03842,0.44487 0.22188,0.24468 0.92832,0.47863 1.56986,0.5199 0.64154,0.0412 1.65579,0.19867 2.25389,0.34978 0.59809,0.15111 1.74903,0.11082 2.55764,-0.0895 0.8086,-0.20035 1.47019,-0.2182 1.47019,-0.0397 0,0.60399 1.72438,-0.6573 3.07088,-2.24619 3.13528,-3.6997 4.26448,-5.75121 4.50898,-8.19189 0.0796,-0.79501 0.25256,-2.46955 0.38426,-3.7212 0.22886,-2.17503 -0.22622,-4.93127 -0.9699,-5.87434 -0.16029,-0.20327 -0.29144,-1.09077 -0.29144,-1.97222 0,-1.22464 -0.20802,-1.80211 -0.88194,-2.44828 -0.58772,-0.56352 -0.88195,-1.24974 -0.88195,-2.0569 v -1.21128 l -0.60661,0.2567 c -0.33363,0.14117 -0.49865,0.13765 -0.3667,-0.008 0.69968,-0.77158 -5.20319,-7.65945 -7.19909,-8.40038 -2.2132,-0.8216 -2.52887,-2.26888 -0.49489,-2.26888 0.42423,0 1.07948,-0.25703 1.45611,-0.57116 0.37664,-0.31414 0.9412,-0.57674 1.25458,-0.58354 0.31338,-0.007 0.94838,-0.33635 1.41111,-0.73234 0.46273,-0.39597 1.00007,-0.66574 1.1941,-0.59948 0.57379,0.19592 2.26395,-2.80403 2.06128,-3.65867 -0.10147,-0.42791 0.29097,-1.81654 0.88904,-3.14582 0.66096,-1.46905 0.90882,-2.38469 0.64769,-2.39268 -0.45842,-0.014 -2.01051,-1.32855 -2.01051,-1.70277 0,-0.57713 1.07387,-0.14196 1.5675,0.6352 l 0.54917,0.86461 v -1.08691 c 0,-1.01508 -0.67823,-2.18431 -1.31032,-2.25891 -0.15245,-0.018 -0.64769,-0.18804 -1.10054,-0.37791 -0.45284,-0.18987 -0.94262,-0.26391 -1.08839,-0.16457 -0.29136,0.19857 -1.56598,-2.49956 -1.31274,-2.77882 0.0864,-0.0953 0.44495,0.36401 0.79673,1.02072 0.47637,0.88928 0.89673,1.19401 1.64707,1.19401 0.55411,0 1.25733,0.27552 1.56271,0.61228 0.40063,0.44179 0.62552,0.48688 0.80765,0.1619 1.19604,-2.13408 0.86262,4.22928 -0.34856,6.6524 -0.57857,1.15748 -1.04999,2.36712 -1.0476,2.68806 0.003,0.4022 0.12356,0.34175 0.388,-0.19451 0.21102,-0.42793 0.77134,-1.41532 1.24515,-2.19421 l 0.86149,-1.41616 0.067,-3.67629 c 0.0471,-2.58293 -0.0728,-3.86275 -0.40308,-4.30328 -0.25856,-0.34485 -0.37688,-0.95095 -0.26293,-1.34687 0.11396,-0.39594 -0.0321,-1.06082 -0.32449,-1.47751 l -0.53169,-0.75764 0.23346,0.77804 c 0.30421,1.01382 0.029,0.72041 -1.64508,-1.75392 -0.76145,-1.12544 -1.94557,-2.46671 -2.63139,-2.98061 -0.68581,-0.51391 -1.24693,-1.086 -1.24693,-1.27132 0,-0.18532 -0.46406,-0.51534 -1.03125,-0.73338 l -1.03126,-0.39644 -0.20365,0.58525 c -0.25949,0.74571 -1.11653,0.44302 -0.99097,-0.34999 0.063,-0.39789 -0.2587,-0.65243 -0.97013,-0.76758 -0.79287,-0.12831 -1.07151,-0.0158 -1.09225,0.44116 -0.0182,0.40155 -0.0893,0.44546 -0.20579,0.12713 -0.0979,-0.26745 -0.33283,-0.48629 -0.52214,-0.48629 -0.18931,0 -0.24608,0.17506 -0.12617,0.38903 0.11992,0.21397 0.0609,0.38903 -0.13103,0.38903 -0.19198,0 -0.39979,-0.3939 -0.46179,-0.87531 l -0.11273,-0.8753 h -1.46632 c -0.80648,0 -1.40224,-0.1138 -1.3239,-0.25287 0.16719,-0.29684 -1.47428,-0.41758 -5.14728,-0.3786 -3.35197,0.0356 -4.93889,0.37766 -4.93889,1.06465 0,0.30193 -0.35369,0.53937 -0.80345,0.53937 -0.4419,0 -1.12348,0.2472 -1.51463,0.54931 -0.39114,0.30213 -1.61275,0.83833 -2.71469,1.19159 -2.35494,0.75496 -4.13946,1.68183 -4.13946,2.15006 0,0.18301 -0.25082,0.60934 -0.55739,0.94741 l -0.5574,0.61467 0.46713,1.16373 c 0.25692,0.64005 0.57967,1.16373 0.71723,1.16373 0.13756,0 0.4741,0.56896 0.74788,1.26433 0.27377,0.69539 0.66933,1.70199 0.87902,2.2369 l 0.38126,0.97256 0.237,-0.87532 c 0.13036,-0.4814 0.38661,-0.8753 0.56946,-0.8753 0.18285,0 0.24037,0.16431 0.12783,0.36512 -0.11255,0.20081 0.0765,0.56299 0.42015,0.80482 l 0.62478,0.4397 -0.79375,-0.18485 c -0.43656,-0.10168 -0.79375,-0.0262 -0.79375,0.16773 0,0.84935 -1.13338,0.24511 -1.53986,-0.82094 -0.24611,-0.64546 -0.56433,-1.04467 -0.70717,-0.88717 -0.14284,0.15752 -0.17843,0.0291 -0.0791,-0.28529 0.2534,-0.80208 -1.28908,-3.62017 -2.11697,-3.86767 -0.37759,-0.11288 -1.03738,-0.48189 -1.46619,-0.82004 l -0.77966,-0.61482 0.0813,-2.7469 c 0.0448,-1.515 0.22462,-2.65149 0.40092,-2.53414 0.18225,0.12129 0.22244,-0.32324 0.0935,-1.03416 -0.12438,-0.6858 -0.0916,-1.15518 0.0729,-1.04309 0.16448,0.11209 0.47235,-0.97334 0.68417,-2.41207 0.21182,-1.43873 0.48976,-3.18482 0.61763,-3.88021 0.25762,-1.40095 -0.0406,-1.62042 -0.79293,-0.58354 l -0.49397,0.68079 0.1059,-0.77804 c 0.0591,-0.43444 0.4228,-0.82832 0.82347,-0.89188 0.52385,-0.0832 0.84037,-0.60821 1.17245,-1.94512 0.55462,-2.23279 0.76668,-2.84916 1.83462,-5.33253 0.46007,-1.06981 0.80031,-2.29524 0.75611,-2.72317 -0.0544,-0.52626 0.0131,-0.61936 0.20839,-0.28768 0.2723,0.46241 2.18282,-2.17542 2.18282,-3.01381 0,-0.67096 2.72931,-0.13098 3.53817,0.70001 l 0.82821,0.85087 h -0.6081 -0.6081 l 0.36519,0.75247 c 0.6815,1.40425 0.41248,2.71185 -0.83214,4.04474 -2.01893,2.16209 -0.8275,3.44678 1.43315,1.54533 l 1.24708,-1.04892 -0.13778,-2.68899 -0.13779,-2.68901 -0.86825,-0.69788 c -0.47754,-0.38382 -1.31382,-1.15345 -1.8584,-1.71029 -2.20795,-2.25762 -7.34222,3.57157 -8.19171,9.30048 -0.19335,1.30393 -1.10159,4.65793 -1.47969,5.46429 -0.19602,0.41807 -0.45001,1.72295 -0.56441,2.89975 -0.18973,1.9517 -0.1348,2.02423 0.3261,0.4306 0.39809,-1.37646 0.48952,0.0752 0.096,1.52368 l -0.44585,1.641 -0.29049,-0.72782 c -0.17774,-0.44532 -0.23052,0.10266 -0.13599,1.41181 0.0862,1.19401 0.0361,1.80144 -0.11334,1.37441 l -0.26783,-0.76522 -0.19954,1.64053 c -0.10975,0.90229 -0.14104,2.38455 -0.0695,3.29388 l 0.13002,1.65336 -0.28191,-1.16707 -0.2819,-1.16708 -0.14626,1.13707 c -0.0805,0.62539 -0.38439,1.20767 -0.67543,1.29395 -0.36929,0.1095 -0.40237,0.0572 -0.1095,-0.17295 0.23081,-0.1814 0.40795,-0.8512 0.39364,-1.48845 -0.0143,-0.63726 0.1408,-2.12148 0.3447,-3.29827 0.2039,-1.17681 0.56111,-3.54013 0.7938,-5.25184 1.13556,-8.35336 4.73204,-17.90921 7.65018,-20.32654 1.50186,-1.24413 4.68337,0.25265 6.35647,2.99045 l 0.79848,1.30662 v 2.51592 2.51591 l -1.30366,1.31681 c -1.45807,1.47276 -2.53513,1.6643 -3.40416,0.60536 -0.63068,-0.76849 -0.79748,-2.40076 -0.24534,-2.40076 0.56226,0 2.13094,-2.08253 2.13094,-2.82895 0,-6.17262 -4.66371,-1.94681 -6.99233,6.33577 -0.4503,1.60165 -0.96624,3.21606 -1.14653,3.5876 -0.18029,0.37152 -0.3278,0.97181 -0.3278,1.33396 0,0.36215 -0.15138,1.19607 -0.33639,1.85315 -0.18501,0.65709 -0.59825,3.43799 -0.91831,6.1798 l -0.58193,4.98511 0.61921,0.49931 0.61921,0.4993 0.65188,-0.71886 c 0.35854,-0.39536 0.65188,-0.89648 0.65188,-1.1136 0,-0.65691 2.14843,-1.90275 4.7625,-2.7617 1.3582,-0.44627 2.70757,-1.01278 2.99861,-1.25889 1.01561,-0.85882 2.11202,-1.42003 2.77424,-1.42003 0.36693,0 0.86469,-0.26249 1.10613,-0.58329 l 0.43897,-0.58327 3.22019,0.15768 c 5.34074,0.26152 14.81964,2.38191 15.56742,3.48235 0.19403,0.28554 0.84514,0.79971 1.44692,1.14259 0.60177,0.34289 1.35004,1.05412 1.6628,1.5805 0.31277,0.52639 0.96318,1.42649 1.44537,2.00025 0.48219,0.57374 1.21473,2.16331 1.62788,3.53237 0.41314,1.36906 0.89755,2.58897 1.07646,2.71091 0.17891,0.12192 0.30688,0.60525 0.28437,1.07404 -0.0316,0.65815 -0.0777,0.69723 -0.20226,0.17156 -0.27714,-1.16949 -0.69294,-0.74468 -0.66523,0.67964 0.0146,0.74824 0.15111,1.36095 0.30346,1.36158 0.15235,6.3e-4 0.10387,0.35789 -0.10774,0.7939 -0.2116,0.43601 -0.28472,1.14024 -0.16248,1.56494 0.36202,1.25783 -4.4104,10.2275 -5.06033,9.51079 -0.0953,-0.10509 -0.35056,-0.0287 -0.56734,0.16974 -0.21679,0.19841 -1.28624,0.85336 -2.37656,1.45547 l -1.98242,1.09474 2.78591,2.64376 c 3.88035,3.68238 6.61929,7.89661 7.63673,11.75017 0.79017,2.9928 1.47477,6.53377 1.31747,6.81444 -0.0872,0.15568 -0.1807,1.57462 -0.20766,3.15321 -0.0894,5.23367 -3.18153,11.22405 -6.78721,13.14887 l -1.57511,0.84085 -2.94513,-0.083 c -1.61982,-0.0457 -3.6595,-0.22608 -4.53262,-0.40089 z m -59.795834,-6.95913 c -4.57733,-1.08683 -8.643056,-3.57506 -8.643056,-5.28955 0,-0.26835 -0.207143,-0.6279 -0.460319,-0.799 -0.784964,-0.53049 -2.009125,-3.07309 -2.009125,-4.17296 0,-0.57577 0.143581,-0.949 0.319069,-0.82941 0.178854,0.12189 0.312445,-0.94935 0.303996,-2.43771 -0.03265,-5.75103 2.201639,-10.08446 7.255985,-14.0731 l 1.705439,-1.34585 -1.047022,-0.98032 c -0.575861,-0.53917 -1.703447,-1.59302 -2.505745,-2.34189 -1.300344,-1.21376 -3.392523,-4.30133 -2.504553,-3.69616 0.532305,0.36278 0.42422,-0.17156 -0.166458,-0.82292 -0.950909,-1.04861 -1.345199,-3.78831 -1.365175,-9.48581 l -0.01978,-5.64086 0.826256,-2.33415 c 0.802673,-2.26753 3.074608,-5.24901 4.003813,-5.25423 0.234365,-8.6e-4 0.902368,-0.28271 1.484451,-0.6253 0.582083,-0.3426 1.889954,-0.94411 2.906379,-1.3367 l 1.848047,-0.71381 3.620009,0.15484 c 5.141756,0.21994 7.478603,0.54082 10.499177,1.44165 1.455209,0.434 3.598334,1.02013 4.762501,1.30254 1.164167,0.28239 2.791354,0.77812 3.615972,1.10162 0.824618,0.32349 1.499306,0.50223 1.499306,0.39722 0,-0.10498 0.295202,-0.0168 0.656004,0.19621 l 0.656004,0.38715 0.313924,-3.58292 c 1.165925,-13.30732 -2.156188,-21.92587 -7.430167,-19.27598 -1.539901,0.77372 -0.03239,4.99488 1.783835,4.99488 0.270942,0 0.492622,0.17506 0.492622,0.38902 0,0.9282 -1.642876,0.31246 -2.564378,-0.96111 -1.384343,-1.91324 -1.55351,-3.26954 -0.578319,-4.63668 l 0.793002,-1.11172 2.140228,0.21401 2.140227,0.21401 1.327676,1.56958 c 0.730221,0.86327 1.327675,1.92648 1.327675,2.36269 0,0.43623 0.143888,0.79311 0.319749,0.79311 0.17586,0 0.24147,0.3939 0.14579,0.87531 l -0.17397,0.87531 0.3941,-0.58353 0.394095,-0.58354 -0.192975,0.97256 c -0.10613,0.53491 0.0299,2.11047 0.302345,3.50123 0.27243,1.39076 0.45508,3.66655 0.40588,5.05731 -0.12687,3.5865 -0.54523,8.96848 -0.786245,10.11465 l -0.20451,0.97256 -0.26696,-0.97256 c -0.174257,-0.63481 -0.279181,-0.73614 -0.302134,-0.29176 -0.03582,0.69344 -0.585993,0.94176 -0.799517,0.36087 -0.146856,-0.39952 -5.855598,-2.40734 -6.838009,-2.40499 -0.397757,8.5e-4 -0.874007,-0.15488 -1.058334,-0.34629 -0.432852,-0.44952 -3.597955,-1.17608 -3.860769,-0.88625 -0.110366,0.1217 0.161501,0.46129 0.604149,0.75464 0.519583,0.34435 0.575792,0.45491 0.158601,0.31199 -0.355418,-0.12176 -0.773465,-0.22137 -0.928994,-0.22137 -0.155529,0 -0.357967,-0.31707 -0.449861,-0.70457 l -0.167081,-0.70457 -3.865242,-0.48668 c -4.28274,-0.53926 -4.770628,-0.50687 -5.118509,0.33971 l -0.239788,0.58353 -0.02479,-0.68078 c -0.01612,-0.4425 -0.302642,-0.67647 -0.818545,-0.66842 l -0.79375,0.0123 0.684787,0.57117 0.684788,0.57116 -0.684788,0.0247 -0.684787,0.0247 0.79375,0.35184 c 0.436562,0.1935 0.79375,0.55397 0.79375,0.80102 0,0.30046 -0.146017,0.32475 -0.440972,0.0733 -0.479121,-0.40835 -1.695217,-0.39069 -3.086806,0.0449 l -0.881945,0.27602 0.684788,-0.60368 c 0.376633,-0.33203 0.79468,-0.60368 0.928994,-0.60368 0.134314,0 0.327235,-0.35013 0.428713,-0.77805 0.101479,-0.42792 0.143684,-0.77805 0.09379,-0.77805 -3.233472,0 -9.040055,4.66528 -9.908961,7.96131 -1.152581,4.37211 -0.533079,15.7692 0.857153,15.7692 0.136069,0 0.459655,0.6473 0.71908,1.43845 0.611888,1.866 3.696916,5.22238 4.529465,4.92787 0.467726,-0.16546 0.497463,-0.12776 0.128436,0.16286 l -0.480211,0.37817 1.092536,0.71167 c 0.600895,0.39143 1.24102,1.15685 1.422499,1.70092 l 0.329963,0.98922 0.03858,-0.77805 0.03858,-0.77804 0.342613,0.64735 c 0.579953,1.09581 -0.295622,2.55859 -0.893235,1.49228 -0.329518,-0.58796 -0.881944,-0.46611 -0.881944,0.19451 0,0.32094 -0.168119,0.58353 -0.373598,0.58353 -0.205479,0 -0.286474,0.15547 -0.179989,0.34546 0.106485,0.19 -0.241333,0.42783 -0.77293,0.52852 -0.531596,0.10068 -1.244351,0.31408 -1.5839,0.47421 -0.361379,0.17044 -0.617361,0.12347 -0.617361,-0.11327 0,-0.40114 1.344075,-1.07096 1.852083,-0.92297 0.145521,0.0423 0.264584,-0.098 0.264584,-0.31195 0,-0.21396 0.238125,-0.38902 0.529166,-0.38902 0.291042,0 0.529167,-0.26259 0.529167,-0.58354 0,-0.32094 0.249765,-0.58353 0.555034,-0.58353 0.6971,0 0.529378,-1.22719 -0.202256,-1.47986 -0.291042,-0.10047 -0.411735,-0.0439 -0.268208,0.12585 0.143527,0.16974 -0.570848,0.9073 -1.5875,1.63904 -3.285768,2.3649 -5.042627,4.58472 -6.233846,7.87654 l -1.082669,2.99185 v 2.78733 c 0,1.59886 -0.150417,2.78731 -0.352778,2.78731 -0.760273,0 -0.288095,1.23757 1.00205,2.62635 0.745155,0.80212 1.462555,1.93983 1.594221,2.52824 0.131667,0.5884 0.395119,1.06982 0.58545,1.06982 0.190332,0 0.663557,0.35012 1.051613,0.77804 0.388055,0.42793 0.705555,0.59849 0.705555,0.37904 0,-0.22873 0.444214,-0.1457 1.040815,0.19451 0.572448,0.32644 1.286823,0.59353 1.5875,0.59353 0.300677,0 0.546686,0.26258 0.546686,0.58353 0,0.32095 0.15875,0.58354 0.352777,0.58354 0.952336,0 0.284372,-1.51085 -0.78217,-1.76917 -2.512922,-0.60864 -5.199042,-3.28685 -6.301925,-6.28338 l -0.771195,-2.09533 0.177877,-2.44366 c 0.09783,-1.34401 0.386009,-2.86832 0.640394,-3.38735 0.254384,-0.51903 0.504039,-1.35661 0.554789,-1.86127 0.09771,-0.97169 1.069867,-2.38914 1.63859,-2.38914 0.186271,0 0.107404,0.3939 -0.17526,0.87531 -0.720019,1.2263 -1.082766,3.01495 -0.611446,3.01495 0.209176,0 0.271731,0.19375 0.139013,0.43056 -0.169051,0.30162 -0.32767,0.27645 -0.529731,-0.084 -0.520001,-0.92783 -0.972274,1.28628 -0.888045,4.34743 0.08367,3.04079 1.123361,5.80976 2.181455,5.80976 0.271876,0 0.494321,0.23933 0.494321,0.53184 0,3.89955 14.000224,4.94893 21.343057,1.59975 2.39765,-1.0936 5.416704,-2.13159 6.199876,-2.13159 h 0.835769 l -1.224767,0.93058 c -0.673622,0.51184 -1.343829,0.85163 -1.48935,0.7551 -0.145521,-0.0965 -0.463021,-0.0388 -0.705556,0.12829 -0.242535,0.16708 -0.599722,0.33735 -0.79375,0.37835 -0.194028,0.041 -1.067153,0.36679 -1.940278,0.72395 -2.500164,1.02275 -5.364492,1.81112 -6.615567,1.82087 -0.63113,0.004 -1.236819,0.16832 -1.345974,0.36308 -0.208914,0.37276 -8.493566,0.0885 -9.080577,-0.31155 -0.18454,-0.12577 -0.263002,0.0146 -0.17436,0.31175 0.08864,0.29725 0.625174,0.5997 1.192294,0.67212 0.56712,0.0725 1.189878,0.26799 1.383905,0.43459 0.326865,0.28066 4.532495,0.23742 10.080574,-0.10366 2.493886,-0.1533 4.559705,-0.93469 4.559705,-1.72467 0,-0.26872 0.198438,-0.50813 0.440972,-0.53205 2.206403,-0.21759 2.971643,-0.45609 3.620604,-1.12839 0.414297,-0.4292 0.848589,-0.67526 0.965094,-0.54677 0.365036,0.40253 1.676108,-0.25158 1.676108,-0.83624 0,-0.30652 0.282178,-0.55732 0.627061,-0.55732 0.344883,0 1.019571,-0.29801 1.499305,-0.66223 0.680052,-0.51631 0.776398,-0.53071 0.437252,-0.0654 l -0.434995,0.5969 0.51197,0.74612 c 0.873177,1.27256 0.607044,1.91874 -0.330692,0.80293 -0.971546,-1.15601 -1.251567,-1.269 -1.251567,-0.50499 0,0.49938 -4.777896,3.36587 -5.61024,3.36587 -0.218106,0 -0.75159,0.20241 -1.18552,0.44977 -1.694492,0.96597 -2.036253,1.08456 -4.19898,1.45684 -4.258748,0.73311 -10.127928,0.74169 -13.17054,0.0193 z"
       id="path62521" /><g
       id="g62509"
       transform="matrix(1,0,0,1.0869221,0.11334949,37.488692)"><path
         style="fill:#b5aea7"
         d="m 133.26181,191.5987 c -2.38003,-0.45306 -9.58172,-3.68624 -10.96389,-4.9222 -0.30632,-0.27391 -0.7394,-0.49803 -0.9624,-0.49803 -0.79234,0 -5.90387,-2.5576 -6.81005,-3.40747 -0.50659,-0.47511 -1.7757,-1.08928 -2.82024,-1.36482 -1.04454,-0.27555 -2.0993,-0.77469 -2.34391,-1.10921 -0.40618,-0.55548 -0.5684,-0.48746 -1.87099,0.78456 l -1.42626,1.39278 h -2.59876 c -2.36282,0 -2.74658,-0.1041 -4.226728,-1.14653 -2.019946,-1.4226 -1.680642,-1.44664 -5.577431,0.39519 -12.298056,5.81271 -25.634334,4.63635 -30.644161,-2.70305 -2.003921,-2.93574 -1.542657,-2.82457 0.570667,0.13755 3.602534,5.04944 11.671836,6.86203 22.516636,5.05785 1.970494,-0.32781 7.950541,-2.8636 10.360463,-4.39326 0.706805,-0.44863 0.949301,-0.37037 2.801506,0.90416 3.389298,2.33223 6.765538,1.88687 8.635708,-1.13912 0.88875,-1.43803 1.23656,-1.46108 1.99906,-0.1325 0.41666,0.72599 1.02576,1.14563 2.02987,1.39846 0.78902,0.19868 2.12863,0.864 2.9769,1.47849 0.84828,0.61449 2.74527,1.66502 4.21553,2.33452 1.47026,0.66949 2.91133,1.36214 3.20237,1.53921 8.85189,5.38556 16.4681,6.45539 20.69529,2.90702 8.32689,-6.98973 6.63597,-21.33487 -3.54775,-30.09772 -2.9622,-2.5489 -2.38958,-4.58611 1.28907,-4.58611 0.54239,0 2.39392,-2.35783 4.4324,-5.64444 7.01137,-11.3043 -10.86432,-26.8818 -24.45651,-21.31226 -0.77611,0.31802 -2.60879,1.11588 -4.07262,1.77301 -1.46382,0.65714 -2.79335,1.1948 -2.95449,1.1948 -1.28027,0 -4.34521,1.92876 -5.06905,3.18994 -0.70726,1.2323 -0.89545,1.35933 -1.51923,1.0255 -1.02125,-0.54656 -1.11858,-1.04777 -0.6767,-3.48457 0.21642,-1.1935 0.4634,-3.07651 0.54884,-4.18446 0.1808,-2.3445 0.80081,-5.58764 1.26188,-6.60058 0.17663,-0.38805 0.46562,-1.1818 0.64219,-1.76389 1.4116,-4.6534 4.53994,-10.05416 5.82379,-10.05416 2.52641,0 2.91055,3.60066 0.59024,5.53252 -1.7973,1.49641 0.24186,3.19663 2.22408,1.85439 3.90091,-2.64145 1.07737,-9.85636 -3.85728,-9.85636 -3.10435,0 -7.69602,10.4528 -9.18621,20.91218 -0.88389,6.20378 -2.55071,7.8829 -2.2584,2.27505 0.37229,-7.14212 -0.33181,-12.86921 -1.98843,-16.17391 -2.215549,-4.41966 -7.279964,-5.98446 -10.444869,-3.22724 -2.707426,2.35867 1.254443,9.39702 4.594134,8.16159 1.141676,-0.42234 0.842058,-1.43039 -0.530888,-1.78615 -2.670353,-0.69196 -3.333068,-4.0207 -0.963571,-4.83991 5.214027,-1.80265 8.614094,6.22858 7.230824,17.07978 -0.247343,1.94028 -0.511286,3.59079 -0.586544,3.66781 -0.07526,0.077 -3.319356,-0.68112 -7.209108,-1.68474 -12.856395,-3.31717 -19.857888,-3.102 -25.530056,0.78462 -1.54738,1.06027 -3.147026,4.80149 -3.417187,7.99203 l -0.224038,2.64584 -0.04942,-2.11667 c -0.09791,-4.19331 2.539926,-9.68172 4.664822,-9.70586 0.216368,-0.002 1.345897,-0.48934 2.510064,-1.08197 2.7483,-1.39905 4.248302,-1.54943 10.41589,-1.04425 4.734824,0.38782 6.799126,0.79748 14.359312,2.84959 3.763816,1.02163 4.188667,0.96172 4.472182,-0.6307 0.964073,-5.41491 0.404144,-12.47459 -1.283108,-16.17771 -0.817938,-1.79518 -4.564364,-2.88646 -6.08702,-1.77307 -1.306128,0.95506 0.683592,3.91233 2.48423,3.69224 1.590049,-0.19434 1.988522,0.94787 0.716376,2.05347 -1.382291,1.20133 -2.740459,0.90553 -4.707861,-1.02533 -5.322319,-5.22346 -0.0027,-11.55565 6.54418,-7.7899 4.010346,2.30672 6.004566,8.41344 5.566396,17.04546 -0.37859,7.45827 0.32254,7.29523 1.5413,-0.35842 0.38724,-2.43179 0.95041,-5.11962 1.25148,-5.97296 0.30107,-0.85333 0.78939,-2.48537 1.08515,-3.62675 1.90837,-7.36461 5.9493,-11.714 9.28205,-9.99057 4.82489,2.49505 4.91895,10.78256 0.12238,10.78256 -1.84883,0 -2.36817,-2.3006 -0.78377,-3.47199 1.63046,-1.20545 1.35686,-4.6419 -0.36957,-4.6419 -1.20951,0 -3.84434,4.5863 -5.60545,9.75706 -2.29624,6.74194 -3.31891,18.54558 -1.31065,15.12744 0.88636,-1.50863 2.27024,-2.57673 4.11578,-3.17665 1.06434,-0.34598 3.03689,-1.16491 4.38344,-1.81984 1.34655,-0.65493 2.69592,-1.19583 2.99861,-1.202 0.30269,-0.006 0.8585,-0.2443 1.23513,-0.52917 0.37663,-0.28487 1.27006,-0.51795 1.98539,-0.51795 0.71533,0 1.89307,-0.24754 2.61719,-0.5501 l 1.3166,-0.55011 -0.65615,-0.53439 c -0.36088,-0.29391 -0.45771,-0.43387 -0.21518,-0.31102 0.72623,0.36787 0.49765,-0.31871 -0.26458,-0.79473 -0.8779,-0.54826 -0.88792,-1.41169 -0.0293,-2.52872 l 0.66052,-0.85935 1.8643,0.6021 c 2.11113,0.68182 2.56101,0.47723 2.56101,-1.16469 0,-1.28298 0.13601,-1.30435 1.67988,-0.26394 1.70376,1.14816 1.67787,1.75967 -0.10867,2.56718 -1.96646,0.88883 -2.37256,2.59049 -0.55281,2.31639 0.37214,-0.056 1.0459,1.32766 0.82249,1.68915 -0.10495,0.16981 0.0862,0.64268 0.42466,1.05083 0.93678,1.1295 6.75859,2.00083 7.31825,1.09529 0.11991,-0.19402 0.47853,-0.35277 0.79693,-0.35277 0.45025,0 0.48483,0.0941 0.15557,0.42333 -0.736,0.736 -0.46287,1.62727 0.79198,2.58439 2.67098,2.03725 6.04699,9.08594 5.65597,11.80894 -0.12538,0.87313 -0.25427,2.14313 -0.28643,2.82223 -0.0322,0.67909 -0.34515,1.63159 -0.69555,2.11666 -3.10023,4.29182 -4.00371,5.61119 -4.46914,6.52639 -0.3728,0.73305 -0.81271,1.06895 -1.4313,1.09287 -3.04352,0.11771 -3.05142,1.32525 -0.0263,4.01384 3.31208,2.94361 6.0604,7.25357 7.31649,11.47385 0.34649,1.16416 0.7289,2.27541 0.8498,2.46944 0.327,0.52482 0.029,5.63614 -0.49691,8.52377 -1.20491,6.61549 -8.09793,11.09442 -15.04031,9.77285 z"
         id="path62520" /><path
         style="fill:#8fa4a9"
         d="m 139.61181,187.24772 c -0.29104,-0.16521 -1.07777,-0.54127 -1.74828,-0.83569 l -1.21911,-0.53532 0.93512,-0.42607 c 2.14728,-0.97836 0.69479,-1.79844 -2.55384,-1.44191 -2.47815,0.27198 -7.67372,-1.16044 -6.53021,-1.80038 0.36372,-0.20354 0.74768,-0.17142 1.06121,0.0888 0.56969,0.47281 2.11761,0.34445 2.11761,-0.1756 0,-0.19403 -1.01509,-0.5947 -2.25576,-0.89037 -1.73693,-0.41395 -2.32258,-0.71822 -2.54627,-1.32292 -0.35736,-0.96604 -0.59146,-0.97837 -1.5462,-0.0814 l -0.74925,0.70388 -1.5183,-1.11657 c -1.2699,-0.93389 -1.62642,-1.04905 -2.17912,-0.70389 -1.26346,0.78905 -5.60927,-0.4367 -5.60927,-1.58211 0,-0.80836 1.10719,-1.01478 1.62737,-0.30339 l 0.46701,0.63867 1.6009,-0.61139 c 1.59162,-0.60785 1.84673,-1.25687 0.49404,-1.25687 -0.90536,0 -2.07265,-0.6205 -2.07265,-1.10176 0,-0.23869 0.51137,-0.28497 1.43133,-0.12955 1.55861,0.26333 3.62371,-0.35638 3.40524,-1.02186 -0.0709,-0.21597 -0.83094,-0.44237 -1.68899,-0.50313 -1.39379,-0.0987 -2.78111,-0.69672 -1.89522,-0.81697 2.86062,-0.38829 4.30398,0.0605 4.46017,1.38691 0.12787,1.08584 3.10691,1.65464 3.10691,0.59321 0,-0.65483 2.82084,-0.73657 3.45723,-0.10019 0.32925,0.32926 0.42333,0.29967 0.42333,-0.13319 0,-1.03177 0.95882,-1.48804 1.39892,-0.66569 0.46971,0.87766 1.02173,0.92991 1.59156,0.15062 0.23234,-0.31774 0.63351,-0.50735 0.8915,-0.42135 0.35082,0.11694 0.29257,0.32926 -0.23109,0.84229 -1.31717,1.29043 -2.30379,3.35873 -1.85827,3.89556 0.42883,0.5167 0.19618,0.68582 -1.26345,0.91846 -2.14891,0.3425 0.0305,2.39231 2.55208,2.40027 1.5658,0.005 3.26875,0.74772 3.26875,1.42573 0,0.8886 0.72465,0.8766 1.87862,-0.0311 l 0.91545,-0.72009 0.23591,1.77842 c 0.18972,1.4302 0.36733,1.77842 0.9071,1.77842 0.81113,0 1.25059,-0.95067 0.69587,-1.50538 -0.63583,-0.63583 -0.477,-0.89101 0.71793,-1.15346 0.92382,-0.20291 1.01555,-0.30253 0.52916,-0.57473 -0.7963,-0.44563 -0.7467,-1.35254 0.074,-1.35254 1.62,0 1.76488,2.53248 0.19172,3.35139 -0.44304,0.23063 -0.6371,0.63956 -0.56044,1.18105 0.0708,0.49988 -0.19839,1.16426 -0.67886,1.67569 -0.86848,0.92447 -0.95101,0.94856 -1.73145,0.50556 z M 73.642361,181.6056 c -4.49722,-0.54657 -9.877575,-3.54102 -6.362413,-3.54102 0.974114,0 1.572293,-1.20125 0.883032,-1.77329 -0.461855,-0.3833 -0.45025,-0.49432 0.09561,-0.91457 0.582879,-0.44875 0.56677,-0.52099 -0.260671,-1.16887 l -0.881945,-0.69056 1.311586,-0.54858 c 1.820875,-0.76158 1.870164,-0.74177 2.543913,1.02241 0.331464,0.86793 0.89741,1.6654 1.264605,1.78194 0.365552,0.11602 0.762833,0.52033 0.882846,0.89846 0.243879,0.76839 1.581773,0.95226 1.581773,0.21738 0,-0.69636 2.498474,-2.57771 3.804092,-2.86447 0.815112,-0.17903 1.134797,-0.44739 1.134797,-0.95263 0,-1.21587 1.103321,-0.58116 1.718948,0.98886 0.315759,0.80527 0.849753,1.76788 1.186653,2.13912 0.427888,0.47151 0.500856,0.78668 0.242052,1.04548 -0.246092,0.2461 -0.25992,0.77159 -0.04118,1.56505 l 0.329307,1.19455 0.463684,-1.05833 c 0.255026,-0.58209 0.474165,-1.44066 0.486974,-1.90795 0.01858,-0.67768 0.326715,-0.95136 1.522596,-1.35232 0.824618,-0.27648 1.499305,-0.64822 1.499305,-0.82608 0,-0.17785 0.611819,-0.32337 1.359598,-0.32337 1.599391,0 3.459346,-1.38995 2.775304,-2.07399 -0.217501,-0.2175 -0.728832,-0.39546 -1.13629,-0.39546 -0.407459,0 -0.891646,-0.14678 -1.075973,-0.32617 -0.191632,-0.1865 -0.973007,-0.20754 -1.824784,-0.0491 -1.718149,0.31954 -1.922578,0.21136 -1.650347,-0.8733 0.109203,-0.4351 0.02635,-0.89751 -0.184107,-1.02758 -0.21118,-0.13052 -0.285895,-0.62202 -0.16673,-1.09682 0.294497,-1.17337 -0.538302,-1.11804 -1.422969,0.0945 l -0.680466,0.93269 0.76866,0.51037 c 1.328256,0.88193 0.529414,1.1855 -2.141757,0.81389 -0.482209,-0.0671 -0.273964,-1.11368 0.262557,-1.31956 0.939096,-0.36037 0.192681,-0.80553 -1.15558,-0.68919 -0.721511,0.0623 -1.618261,-0.0451 -1.992778,-0.23859 l -0.680939,-0.35178 0.641755,-0.46927 c 0.42381,-0.30989 1.157582,-0.39856 2.160645,-0.26107 2.086811,0.28603 2.769204,-5e-5 2.194645,-0.92007 -0.282211,-0.45189 -0.692438,-0.64111 -1.154517,-0.53253 -0.909791,0.21378 -2.6413,-0.25832 -2.650946,-0.7228 -0.01416,-0.68167 5.390191,-0.51758 6.059713,0.18398 0.718151,0.75253 3.836339,1.25133 4.753617,0.76042 0.762133,-0.40789 2.919471,0.22882 4.329624,1.27782 1.42304,1.05858 1.85743,5.04005 0.685936,6.28705 l -0.832832,0.88651 0.818738,0.61757 0.818739,0.61758 -1.2941,0.98706 c -0.711755,0.54288 -2.510983,1.41774 -3.998285,1.94413 -1.487303,0.5264 -3.050937,1.14307 -3.474744,1.3704 -0.423807,0.22732 -1.170124,0.41332 -1.658483,0.41332 -0.488358,0 -1.802148,0.23812 -2.919532,0.52916 -2.072898,0.53992 -5.464628,0.61187 -8.938928,0.18963 z"
         id="path62519" /><path
         style="fill:#7096a6"
         d="m 82.811235,178.76388 c -0.280291,-0.52373 -0.290876,-0.70475 -0.03185,-0.54466 0.736739,0.45533 1.246863,-0.22837 0.550379,-0.73765 -0.35752,-0.26143 -0.512647,-0.47532 -0.344727,-0.47532 0.16792,0 -0.02087,-0.35719 -0.419535,-0.79375 -0.398664,-0.43656 -0.941208,-1.40768 -1.205653,-2.15803 -0.306922,-0.87088 -0.800626,-1.48913 -1.365122,-1.70951 l -0.884313,-0.34523 0.79375,-0.53838 c 1.254731,-0.85105 0.945912,-1.1539 -1.234723,-1.21086 l -2.028472,-0.053 1.5875,-0.21604 1.5875,-0.21605 -1.026033,-0.36696 c -0.680339,-0.24333 -1.718497,-0.25545 -3.081289,-0.036 -1.535104,0.24722 -2.189592,0.2195 -2.586055,-0.10954 -0.679747,-0.56414 -0.311213,-1.18122 0.568118,-0.95127 0.998846,0.2612 3.126648,-0.42387 3.126648,-1.00667 0,-0.27823 -0.396875,-0.60547 -0.881945,-0.72722 -0.485069,-0.12174 -0.881944,-0.42242 -0.881944,-0.66818 0,-0.44842 -1.495552,-0.8878 -3.021889,-0.8878 -1.623008,0 -1.463112,-1.42792 0.238837,-2.13289 0.897791,-0.37187 1.108937,-0.34863 1.483264,0.16329 0.529065,0.72354 1.705502,0.40137 1.403945,-0.38447 -0.157719,-0.41101 0.02768,-0.50749 0.816237,-0.42478 0.561169,0.0589 1.213988,-0.0127 1.450708,-0.15898 0.487565,-0.30133 2.567787,0.65705 2.567787,1.183 0,0.18905 -0.238125,0.34372 -0.529166,0.34372 -0.743683,0 -0.663281,0.69356 0.08819,0.76078 0.339549,0.0304 1.093611,0.11249 1.675695,0.18248 0.582083,0.07 1.642104,0.11878 2.355603,0.1084 0.840445,-0.0122 1.523701,0.21993 1.940278,0.65929 0.663896,0.7002 3.641619,1.40996 3.641619,0.868 0,-0.80456 -1.152326,-1.8911 -1.790721,-1.68849 -0.369825,0.11738 -0.872268,0.0841 -1.116539,-0.0739 -0.244271,-0.15804 -1.317254,-0.4461 -2.384407,-0.64013 -2.242114,-0.40765 -2.641967,-1.23867 -0.779302,-1.61963 0.638537,-0.13059 1.444787,-0.49429 1.791667,-0.80821 0.34688,-0.31392 0.886635,-0.57077 1.199454,-0.57077 1.140818,0 0.989469,-0.70625 -0.162527,-0.75841 -1.000234,-0.0453 -1.034757,-0.0733 -0.241156,-0.19558 0.594191,-0.0916 1.402189,0.18029 2.254091,0.75841 1.394552,0.94637 2.446778,1.14729 2.822722,0.539 0.123096,-0.19917 0.410278,-0.33206 0.638181,-0.29531 1.157452,0.18665 2.23823,-0.47492 2.278133,-1.39451 0.02259,-0.52066 0.08874,-1.26415 0.14699,-1.65221 0.07362,-0.49042 -0.08233,-0.69062 -0.511447,-0.65656 -0.730674,0.058 -0.748817,-0.0245 -0.199076,-0.90474 0.350529,-0.56129 0.258218,-0.87964 -0.569881,-1.96533 -1.05902,-1.38845 -0.82551,-2.54596 0.321559,-1.59398 0.738717,0.61308 1.04063,0.24345 0.549978,-0.67334 -0.342963,-0.64084 -0.276406,-0.78441 0.500585,-1.07982 0.855918,-0.32542 1.318083,-1.76929 0.566329,-1.76929 -0.702004,0 -2.335309,0.76265 -2.722902,1.27141 -0.680306,0.893 -5.382094,0.92292 -6.366164,0.0405 l -0.775822,-0.69566 -0.180582,0.8384 c -0.09932,0.46112 -0.230363,1.1559 -0.291207,1.54395 -0.07737,0.49347 -0.337218,0.67397 -0.864428,0.60049 -1.385842,-0.19318 -1.210466,0.59778 0.293677,1.3245 1.486698,0.71829 3.12335,0.36964 3.12335,-0.66537 0,-0.17139 0.3175,-0.22859 0.705556,-0.12711 0.388056,0.10148 0.705556,0.31404 0.705556,0.47237 0,0.53197 1.485957,0.78511 1.78342,0.3038 0.30083,-0.48675 1.708298,0.85414 1.732621,1.65067 0.0183,0.59926 -1.536352,1.17558 -2.18777,0.81103 -0.345708,-0.19347 -0.943566,-0.17398 -1.532561,0.05 -0.838846,0.31892 -1.097751,0.24068 -1.970546,-0.59551 -0.754698,-0.72305 -1.10536,-0.86213 -1.408739,-0.55875 -0.704067,0.70407 1.048747,2.18866 2.592616,2.19589 0.716153,0.003 1.394459,0.15554 1.507346,0.33819 0.266032,0.43045 -2.275448,0.60922 -4.749721,0.3341 -1.067153,-0.11866 -2.257778,-0.0702 -2.645833,0.10766 -0.665258,0.30493 -0.669257,0.29412 -0.07001,-0.18922 0.417845,-0.33703 1.097009,-0.45073 1.982736,-0.33193 0.836679,0.11223 1.444752,0.0228 1.604643,-0.23586 0.3606,-0.58347 -0.09281,-0.93669 -0.57868,-0.45081 -0.299404,0.2994 -0.588271,0.29774 -1.140648,-0.007 -0.406838,-0.22412 -0.970089,-0.44546 -1.251669,-0.49186 -0.28158,-0.0464 -0.75783,-0.37839 -1.058333,-0.73776 -1.075438,-1.28612 -1.738914,-1.62626 -2.286198,-1.17205 -0.368134,0.30552 -0.857098,0.32201 -1.803154,0.0608 -1.01045,-0.279 -1.471959,-0.24446 -2.082975,0.15589 -0.827945,0.54249 -3.0171,0.35266 -3.0171,-0.26163 0,-0.18122 0.147781,-0.23817 0.328401,-0.12654 0.180621,0.11163 0.428115,0.0416 0.549987,-0.15557 0.121872,-0.19719 0.520347,-0.35853 0.885501,-0.35853 0.971922,0 1.227756,-0.67594 0.476299,-1.25843 l -0.652688,-0.50593 0.79375,-0.67367 c 0.436563,-0.37052 0.79375,-0.83849 0.79375,-1.03992 0,-0.79438 1.907084,-2.35945 3.283354,-2.69454 l 1.453555,-0.3539 0.44102,-2.82222 c 0.377116,-2.41328 0.366985,-2.87839 -0.06992,-3.20988 -0.281014,-0.21321 -0.412769,-0.48583 -0.292788,-0.60581 0.119981,-0.11998 0.605904,0.0869 1.079831,0.45966 0.710973,0.55925 1.27345,0.65058 3.215953,0.52218 3.096068,-0.20465 2.840821,-0.20351 4.590793,-0.0204 0.876244,0.0917 1.716946,0.41453 1.965849,0.75492 0.407613,0.55744 0.508083,0.55688 1.602304,-0.009 1.22609,-0.63404 4.249491,-0.49515 4.249491,0.1952 0,2.28438 -1.812066,4.25096 -3.051637,3.31185 -0.849246,-0.64339 -1.181697,-0.63991 -1.181697,0.0124 0,0.5832 -0.549308,0.71461 -0.863322,0.20652 -0.109674,-0.17745 -0.0026,-0.38826 0.238015,-0.46845 0.295557,-0.0985 0.148247,-0.48947 -0.454215,-1.20546 -0.766241,-0.91063 -1.006769,-1.00828 -1.71029,-0.69436 -0.650799,0.2904 -0.908772,0.24205 -1.258173,-0.23578 -0.493721,-0.6752 -2.979952,-0.84036 -3.582341,-0.23798 -0.248954,0.24896 -0.687025,0.19419 -1.393473,-0.17421 -1.67501,-0.87349 -3.54094,-0.41753 -2.007927,0.49066 0.580366,0.34382 0.565476,0.4166 -0.209461,1.02388 -0.731251,0.57304 -0.803323,0.83676 -0.583794,2.13614 l 0.250449,1.48239 -0.831415,-0.20867 c -0.894483,-0.2245 -3.469054,0.68139 -3.469054,1.22063 0,0.63793 0.762288,0.78374 1.815864,0.34733 0.977778,-0.40501 1.132003,-0.36803 1.830791,0.43893 1.650306,1.90578 3.507762,2.34948 3.953703,0.94445 0.298061,-0.93911 -0.07046,-1.25471 -0.876962,-0.75104 -0.52836,0.32996 -0.766643,0.28197 -1.2496,-0.25169 -0.738086,-0.81558 -0.57434,-1.8954 0.313345,-2.06635 0.523034,-0.10072 0.622669,0.0293 0.469948,0.61331 -0.217545,0.83189 0.08758,0.95814 0.739671,0.30605 0.24782,-0.24782 1.342103,-0.43509 2.542353,-0.43509 1.704658,0 2.145053,-0.11908 2.305069,-0.62324 0.29533,-0.93051 1.090086,-0.75497 1.969934,0.43509 0.803156,1.08632 2.150142,1.41734 2.627104,0.6456 0.171513,-0.27751 0.06276,-0.33893 -0.331958,-0.18746 -0.752498,0.28876 -1.645372,-0.0514 -1.645372,-0.62683 0,-0.36627 2.10709,-0.91039 4.039097,-1.04304 0.573068,-0.0393 0.58919,3.03509 0.02047,3.90307 -0.288106,0.43971 -0.420451,1.06887 -0.2941,1.39813 0.1436,0.37422 -0.0098,0.7738 -0.409103,1.06579 -0.528013,0.3861 -0.560858,0.56108 -0.189337,1.00874 0.733153,0.88339 0.954682,6.88878 0.254117,6.88878 -0.739253,0 -1.099208,0.63077 -0.663092,1.16198 0.19214,0.23403 0.408013,0.82239 0.479718,1.30746 0.0717,0.48507 0.328341,0.84116 0.570304,0.79131 0.392068,-0.0808 0.272576,1.50622 -0.150472,1.99845 -0.06803,0.0792 0.07336,0.38151 0.314211,0.67188 0.337472,0.40686 0.159441,0.38398 -0.776201,-0.0997 -1.811351,-0.93646 -3.006809,-1.20255 -3.688582,-0.82101 -0.870413,0.48711 -4.019889,-0.0252 -4.730112,-0.76941 -0.653765,-0.68505 -5.978915,-0.8662 -6.154617,-0.20936 -0.122091,0.45642 1.856837,0.95743 2.850988,0.72179 0.719178,-0.17047 0.793447,-0.0939 0.594252,0.61272 -0.157688,0.55937 -0.125683,0.66045 0.104143,0.3289 0.233439,-0.33675 0.403775,-0.36216 0.574636,-0.0857 0.361274,0.58455 -0.701517,0.85838 -2.418297,0.62307 -1.003063,-0.13749 -1.736835,-0.0488 -2.160645,0.26107 l -0.641755,0.46927 0.680939,0.35178 c 0.374517,0.19349 1.271267,0.30085 1.992778,0.23859 1.348261,-0.11634 2.094676,0.32882 1.15558,0.68919 -0.536521,0.20588 -0.744766,1.25248 -0.262557,1.31956 2.671171,0.37161 3.470013,0.068 2.141757,-0.81389 l -0.76866,-0.51037 0.680466,-0.93269 c 0.374255,-0.51297 0.91859,-0.93524 1.209631,-0.93837 0.470371,-0.005 0.470371,0.0323 0,0.33629 -0.384515,0.2485 -0.402933,0.34346 -0.06737,0.34738 0.253986,0.003 0.359381,0.17111 0.234213,0.37363 -0.125169,0.20253 -0.0374,0.59738 0.195036,0.87746 0.232438,0.28007 0.324965,0.76369 0.205615,1.07471 -0.356093,0.92796 0.03982,1.13086 1.629775,0.83523 0.828796,-0.1541 1.626638,-0.16449 1.772982,-0.0231 0.146344,0.14141 -0.393036,0.296 -1.198622,0.34354 -0.805586,0.0475 -1.560322,0.10381 -1.677191,0.12506 -0.116869,0.0213 -0.500972,-0.087 -0.853563,-0.24059 -0.366417,-0.15961 -0.799115,-0.1212 -1.009956,0.0896 -0.691113,0.69111 0.101692,1.13591 2.024628,1.13591 1.420817,0 1.919458,0.12983 1.919458,0.49977 0,0.27488 0.198437,0.57984 0.440972,0.67771 0.242535,0.0979 0.07245,0.19047 -0.377976,0.20578 -0.450422,0.0153 -1.057074,0.26598 -1.348115,0.55702 -0.291042,0.29104 -0.70692,0.52917 -0.924173,0.52917 -0.217253,0 -0.08685,-0.23308 0.289782,-0.51795 l 0.684787,-0.51795 -0.949319,-0.0112 c -1.053006,-0.0124 -1.672253,0.62606 -1.006333,1.03762 0.288949,0.17858 0.173997,0.33076 -0.354177,0.46888 -0.587372,0.1536 -0.733691,0.38912 -0.587958,0.9464 0.106708,0.40805 -0.01674,1.14815 -0.274336,1.64466 l -0.468349,0.90274 z"
         id="path62518" /><path
         style="fill:#708b97"
         d="m 133.72604,188.28069 c -1.19988,-0.12469 -2.58336,-0.48995 -3.0744,-0.81168 -0.49103,-0.32174 -1.15686,-0.58498 -1.47962,-0.58498 -1.26979,0 -6.14077,-3.35057 -6.14077,-4.22402 0,-0.1732 -0.45126,-0.30207 -1.0028,-0.28639 -1.23925,0.0352 -4.81803,-1.83343 -4.81803,-2.51575 0,-0.64152 -0.87038,-0.94842 -0.91711,-0.32338 -0.0193,0.2587 -0.14479,0.0735 -0.27878,-0.41157 -0.20877,-0.75581 -0.47724,-0.89716 -1.87701,-0.98832 -0.89836,-0.0585 -1.82422,-0.33632 -2.05747,-0.61736 -0.23324,-0.28105 -0.61816,-0.51099 -0.85537,-0.51099 -0.77905,0 -1.73903,-1.34646 -1.31998,-1.85139 0.20701,-0.24943 0.44762,-1.77285 0.53468,-3.38538 0.16882,-3.12676 0.28396,-3.38519 1.65576,-3.71616 0.48507,-0.11703 0.68351,-0.12164 0.44097,-0.0103 -0.53584,0.2461 -0.59376,2.2604 -0.065,2.2604 0.20678,0 0.6456,-0.1443 0.97515,-0.32067 0.39208,-0.20984 0.80871,-0.16747 1.20536,0.12257 0.55858,0.40844 0.5408,0.47304 -0.22632,0.82256 -0.60315,0.27482 -0.9423,0.26951 -1.23107,-0.0193 -0.29625,-0.29624 -0.55254,-0.2446 -0.9983,0.20115 -0.85147,0.85147 -0.19625,1.37082 1.99511,1.58138 1.83894,0.1767 2.2144,0.51172 1.20596,1.07607 -0.70134,0.39249 -0.30436,1.19667 0.52176,1.05695 0.32235,-0.0545 1.18317,0.18429 1.91293,0.53069 0.72975,0.3464 1.47284,0.53957 1.65132,0.42927 0.17847,-0.1103 0.42439,-0.0389 0.54648,0.15864 0.48863,0.79061 -1.67161,1.13124 -3.09722,0.48837 -0.89271,-0.40255 -1.44498,-0.48909 -1.60073,-0.25083 -0.2704,0.41367 -2.88362,0.58879 -2.88362,0.19325 0,-0.14211 0.35719,-0.41509 0.79375,-0.60662 1.33695,-0.58656 1.0781,-2.08488 -0.38439,-2.22503 -1.03894,-0.0996 -1.1517,-0.0296 -0.95429,0.5924 0.18302,0.57664 0.044,0.72594 -0.76214,0.81846 -1.30963,0.15029 -1.27148,1.02696 0.0724,1.66249 0.58208,0.27528 1.11125,0.6346 1.17592,0.7985 0.0647,0.1639 0.7265,0.298 1.47072,0.298 0.74422,0 1.80255,0.22224 2.35185,0.49387 2.0534,1.01541 3.52233,1.31058 4.44041,0.89227 0.87198,-0.3973 1.67696,-0.13062 3.50503,1.16115 0.47925,0.33865 0.72777,0.30305 1.2625,-0.18087 0.85245,-0.77146 1.0165,-0.75785 1.24162,0.10302 0.10824,0.41391 0.48119,0.70556 0.90227,0.70556 0.39477,0 0.81986,0.1652 0.94466,0.36712 0.12479,0.20192 0.51007,0.27726 0.85617,0.16741 0.8151,-0.25871 2.59464,0.41596 2.31037,0.87592 -0.29534,0.47786 -1.70475,0.44826 -2.1992,-0.0462 -0.44315,-0.44314 -1.50538,-0.17609 -1.50538,0.37847 0,0.19457 0.51594,0.50273 1.14653,0.68481 0.63059,0.18207 0.87905,0.34536 0.55213,0.36286 -0.32692,0.0175 -0.97987,-0.11474 -1.45101,-0.29387 -0.95581,-0.3634 -3.98025,-0.0775 -3.5321,0.3339 0.59418,0.54544 4.78314,1.81507 5.43024,1.64584 0.37165,-0.0972 0.76463,-0.0329 0.87329,0.14296 0.10866,0.17581 0.55332,0.31965 0.98813,0.31965 0.43481,0 0.99096,0.19844 1.23587,0.44098 0.35671,0.35323 0.517,0.31388 0.80561,-0.19777 0.21107,-0.37419 0.67685,-0.59787 1.12456,-0.54005 0.83472,0.10779 1.6462,-0.26875 1.6462,-0.76387 0,-0.17244 -0.83344,-0.37183 -1.85209,-0.44309 -1.48224,-0.1037 -1.30613,-0.1426 0.88195,-0.19483 2.94787,-0.0704 3.6618,0.45711 1.7795,1.31474 l -0.95453,0.43491 1.21911,0.53561 c 0.67051,0.29458 1.51213,0.69082 1.87027,0.88053 1.11837,0.59241 3.14865,-1.7365 2.35134,-2.69719 -0.31308,-0.37724 -0.22878,-0.50398 0.39564,-0.59481 1.67776,-0.24407 1.74747,-3.60068 0.0707,-3.40225 -1.22134,0.14452 -1.41557,0.77109 -0.39194,1.26431 l 0.8037,0.38725 -1.11768,0.0239 c -0.61472,0.0131 -1.36878,0.12024 -1.67569,0.23801 -0.94175,0.36138 -0.66162,-1.12344 0.33517,-1.77656 0.49125,-0.32188 0.79405,-0.74564 0.67288,-0.94169 -0.13907,-0.22502 -0.53343,-0.15126 -1.06957,0.20002 -1.07418,0.70383 -1.12735,0.11012 -0.0555,-0.61996 0.74667,-0.50859 0.75839,-0.57715 0.19755,-1.1558 -1.43753,-1.48317 -2.86312,0.91828 -1.87633,3.16073 0.21179,0.48129 0.11108,0.80222 -0.3598,1.14653 -0.95083,0.69527 -1.51272,0.58774 -1.64105,-0.31404 -0.0953,-0.6694 -0.44293,-0.85108 -2.243,-1.17213 -2.06739,-0.36874 -4.40169,-1.19883 -4.39072,-1.56138 0.003,-0.0982 0.12204,-0.36065 0.26459,-0.58332 0.32974,-0.51506 2.16889,-0.77098 2.161,-0.3007 -0.003,0.19403 -0.31344,0.31496 -0.68929,0.26874 -0.37585,-0.0462 -0.68337,0.0534 -0.68337,0.22139 0,0.60103 1.06838,1.17703 1.81905,0.98073 0.42046,-0.10995 1.09599,-0.0217 1.50118,0.19601 0.4052,0.21776 1.21297,0.49393 1.79505,0.61371 0.58209,0.11979 1.05834,0.40972 1.05834,0.6443 0,0.23458 0.11906,0.42651 0.26458,0.42651 0.14552,0 0.37571,0 0.51153,0 0.13582,0 0.065,-0.1819 -0.15728,-0.40423 -0.46486,-0.46485 -0.2065,-2.26636 0.46642,-3.25224 0.24696,-0.36183 0.36908,-0.86618 0.27138,-1.12079 -0.12385,-0.32276 0.045,-0.40471 0.55766,-0.27064 0.40441,0.10575 0.97258,-0.005 1.26259,-0.24533 0.63876,-0.53013 0.70165,-2.09966 0.0863,-2.15415 -1.03726,-0.0919 -2.21392,0.13058 -2.32736,0.43995 -0.1938,0.52855 -1.11222,-0.41054 -1.11222,-1.13724 0,-1.05649 -1.2681,-1.5274 -1.85534,-0.68899 -0.26729,0.3816 -0.93198,1.04465 -1.47709,1.47344 l -0.99111,0.7796 0.41029,-0.76663 c 0.22566,-0.42165 0.52377,-0.76665 0.66246,-0.76665 0.1387,-1e-5 0.69066,-0.54956 1.22658,-1.22122 l 0.97441,-1.22121 -0.97441,-0.52855 c -0.53592,-0.29069 -0.78815,-0.5349 -0.5605,-0.54266 0.22765,-0.008 0.88557,0.38275 1.46204,0.86782 0.57647,0.48507 1.20601,0.88194 1.39898,0.88194 0.19297,0 0.3288,0.26574 0.30185,0.59053 -0.041,0.49417 0.32514,0.5949 2.24406,0.61736 1.86241,0.0218 2.27176,-0.0726 2.17966,-0.50233 -0.0854,-0.39853 -0.012,-0.42966 0.29727,-0.12607 0.30819,0.30252 0.64247,0.28283 1.33974,-0.0789 1.07513,-0.55778 1.1716,-0.48187 1.95111,1.53505 0.80357,2.07918 0.73851,3.45254 -0.20842,4.39948 -0.58794,0.58794 -0.77635,1.15989 -0.7349,2.23094 0.1317,3.40299 -3.15183,7.70041 -5.29227,6.92641 -1.38285,-0.50004 -3.41275,-0.55929 -3.41275,-0.0996 0,0.17785 0.19062,0.38691 0.4236,0.46457 0.96904,0.32302 -0.39754,0.46702 -2.42881,0.25593 z"
         id="path62517" /><path
         style="fill:#866e73"
         d="m 108.1986,136.94671 c -0.82271,-0.99131 -1.64781,-1.24594 -2.6127,-0.80631 -0.70233,0.32001 -1.09216,0.3123 -1.73995,-0.0344 -0.61056,-0.32676 -1.02377,-0.34568 -1.53811,-0.0704 -0.9024,0.48295 -1.18432,0.18776 -0.79603,-0.83352 0.16925,-0.44517 0.1988,-0.91761 0.0657,-1.04986 -0.13313,-0.13226 -0.32402,-1.61702 -0.42418,-3.29947 l -0.18213,-3.059 -0.41973,2.29305 -0.41974,2.29306 0.24584,-3.175 c 0.99381,-12.83494 -2.14214,-19.81771 -7.985313,-17.78077 -2.129993,0.74252 -1.100609,4.00233 1.623245,5.14043 0.994234,0.41542 1.130391,0.59281 0.779517,1.01559 -1.586982,1.91219 -5.630405,-1.77752 -5.630405,-5.13787 0,-5.77747 8.641285,-4.97143 11.153516,1.04036 1.65233,3.95403 2.01697,7.2402 1.80252,16.24429 -0.15455,6.48935 1.65573,4.16422 2.74107,-3.52064 0.31514,-2.23132 1.03971,-5.43176 1.61016,-7.11209 0.57045,-1.68033 1.03718,-3.33561 1.03718,-3.6784 0,-2.8879 4.93104,-9.5285 6.77837,-9.12839 4.21759,0.91346 6.54061,6.77201 3.62857,9.15109 -2.40373,1.9638 -4.15027,0.62507 -2.1185,-1.62385 2.01156,-2.22656 1.10255,-6.09239 -1.28898,-5.48177 -1.10259,0.28151 -4.15577,5.50232 -5.38161,9.2023 -0.50916,1.5368 -1.10534,3.01059 -1.32486,3.27509 -0.21951,0.2645 -0.44915,0.99149 -0.51029,1.61555 -0.63131,6.44297 -0.86611,8.38615 -1.15468,9.55591 -0.48149,1.95178 -0.15077,2.43699 2.16573,3.17733 0.4088,0.13065 0.61736,0.55858 0.61736,1.26671 0,1.22058 -0.0881,1.2842 -0.72154,0.52098 z"
         id="path62516" /><path
         style="fill:#56768c"
         d="m 142.72917,185.56111 c 1.39786,-2.38437 1.57388,-2.88849 1.64217,-4.70323 0.0425,-1.13055 0.29072,-1.84633 0.82565,-2.38125 1.88191,-1.88192 -0.29116,-7.52705 -2.19314,-5.69725 -0.38727,0.37258 -1.98093,-0.62701 -1.98093,-1.2425 0,-0.52033 2.10102,-0.99987 2.95125,-0.6736 0.76191,0.29237 0.71625,-0.069 -0.24905,-1.97092 -0.69094,-1.36138 -1.01614,-1.63484 -2.28312,-1.91984 -1.04484,-0.23503 -1.47741,-0.51298 -1.47741,-0.94932 0,-0.83211 -0.65828,-1.1923 -0.92218,-0.50459 -0.1164,0.30334 -0.43777,0.55153 -0.71414,0.55153 -0.27637,0 -0.59751,0.2476 -0.71363,0.55022 -0.28561,0.74429 1.55672,2.62478 2.57152,2.62478 0.96387,0 1.46251,0.6716 0.80182,1.07993 -0.29656,0.18328 -0.70716,0.0882 -1.0813,-0.25039 -0.69227,-0.6265 -1.3532,-0.36673 -1.3532,0.53183 0,1.57077 -1.37911,1.84735 -2.88656,0.57891 -0.57647,-0.48507 -1.327,-0.88195 -1.66783,-0.88195 -0.34083,0 -0.71881,-0.0991 -0.83997,-0.22028 -0.30902,-0.30902 2.11871,-2.60194 2.75494,-2.60194 0.60863,0 0.72653,-1.59631 0.14447,-1.95604 -0.20806,-0.12859 -2.19243,-0.24045 -4.40973,-0.24859 -2.21729,-0.008 -4.03144,-0.15043 -4.03144,-0.3162 0,-0.4252 -0.95104,-0.37438 -1.6956,0.0906 -0.6104,0.3812 -1.81646,0.2713 -7.47818,-0.68144 -2.89738,-0.48756 -3.4462,-1.47445 -0.81997,-1.47445 0.97241,0 1.88848,-0.21771 2.23477,-0.53109 0.48364,-0.43769 0.92282,-0.46668 2.49722,-0.16483 1.05071,0.20144 2.70413,0.34347 3.67426,0.31561 0.97014,-0.0279 2.70662,0.12224 3.85884,0.33355 1.15222,0.2113 2.14885,0.33028 2.21473,0.2644 0.30597,-0.30597 -0.63587,-1.94033 -1.20284,-2.08727 -0.35056,-0.0909 0.12226,-0.18361 1.05071,-0.20612 1.56685,-0.038 1.66132,-0.091 1.31515,-0.7378 -0.31921,-0.59645 -0.24101,-0.73 0.54258,-0.92667 1.60943,-0.40394 0.3971,-0.85499 -2.63814,-0.98152 -2.87129,-0.1197 -3.53378,-0.40336 -3.54812,-1.51925 -0.009,-0.69028 -0.63554,-0.86765 -1.39336,-0.39438 -0.79866,0.49877 -1.30517,0.17669 -1.49298,-0.94936 -0.11019,-0.66069 0.0783,-0.70555 2.96419,-0.70555 3.25897,0 3.77604,-0.28477 2.18232,-1.20189 -0.53714,-0.3091 -1.26905,-0.84223 -1.62647,-1.18473 -1.03683,-0.99357 -4.13972,0.30707 -4.16079,1.74406 -0.0118,0.80369 -1.0914,1.53118 -1.95184,1.31522 -1.08849,-0.27319 -1.55963,0.0424 -1.3366,0.89522 0.10737,0.41059 0.54273,0.7286 1.0862,0.7934 0.49886,0.0595 0.98008,0.33034 1.06939,0.60189 0.12806,0.38934 -0.14585,0.45238 -1.29564,0.29816 -1.53354,-0.20569 -1.94747,0.0293 -1.60831,0.91317 0.15171,0.39536 0.63285,0.50523 1.85323,0.42319 1.10326,-0.0742 2.08111,0.10975 2.95717,0.55617 0.71988,0.36684 1.9105,0.67813 2.64584,0.69177 0.73533,0.0136 1.65447,0.16238 2.04252,0.33054 0.73231,0.31733 -1.63529,0.16742 -4.05694,-0.25688 -0.6791,-0.11899 -1.45914,-0.17689 -1.73342,-0.12868 -0.27428,0.0482 -0.87992,-0.11636 -1.34586,-0.36573 -0.70752,-0.37865 -0.9041,-0.36884 -1.19254,0.0595 -0.28881,0.42886 -0.43655,0.38285 -0.90203,-0.28089 -0.36806,-0.52483 -0.91734,-0.79375 -1.62126,-0.79375 -0.60489,0 -1.26166,-0.26659 -1.52094,-0.61736 -0.42091,-0.56946 -0.56195,-0.51471 -1.81765,0.70556 -0.74873,0.7276 -1.71182,1.32291 -2.14021,1.32291 -0.95977,0 -1.02468,0.58 -0.0978,0.87417 0.91733,0.29115 1.33408,2.20079 0.63324,2.90163 -0.53446,0.53446 -0.34773,1.70028 0.55357,3.45615 0.31218,0.60817 0.28818,0.64443 -0.17392,0.26268 -0.43153,-0.3565 -0.807,-0.3473 -1.92504,0.0472 l -1.38895,0.49005 -0.0777,-1.01923 c -0.0507,-0.66485 0.0777,-0.9879 0.36906,-0.92912 0.58208,0.11742 0.82084,-2.21549 0.26209,-2.56082 -0.29995,-0.18537 -0.33414,-1.01831 -0.12461,-3.0356 0.15882,-1.52907 0.3436,-2.34357 0.41063,-1.80999 0.10533,0.83846 0.28041,0.97014 1.28996,0.97014 2.00387,0 2.47409,-1.22285 0.72532,-1.88625 -0.68264,-0.25896 0.0219,-0.48663 2.16945,-0.7011 l 2.16946,-0.21666 -0.19023,0.72744 c -0.15811,0.6046 -0.0479,0.70731 0.65277,0.60825 0.68664,-0.0971 0.82416,-0.29912 0.74145,-1.08932 -0.0558,-0.53358 0.0632,-0.97014 0.26458,-0.97014 0.20137,0 0.36613,-0.23813 0.36613,-0.52917 0,-0.65025 -2.49465,-0.73972 -3.47932,-0.12478 -0.8237,0.51441 -2.36214,0.13837 -3.1372,-0.76683 -0.32771,-0.38274 -0.87806,-0.69589 -1.22299,-0.69589 -0.34494,0 -0.62715,-0.23812 -0.62715,-0.52917 0,-0.32639 0.33123,-0.52916 0.86441,-0.52916 0.47543,0 1.02623,-0.27782 1.224,-0.61736 0.19776,-0.33955 0.3644,-0.47112 0.3703,-0.29237 0.006,0.17875 -0.2656,0.63034 -0.60333,1.00353 l -0.61405,0.67853 0.9865,0.84855 c 1.03189,0.88759 1.98463,1.07989 2.5523,0.51515 0.18433,-0.18337 1.2751,-0.38181 2.42394,-0.44097 2.11591,-0.10896 2.99055,-0.72943 1.63479,-1.15973 -1.00746,-0.31976 -0.90523,-1.04551 0.21944,-1.55794 0.7918,-0.36077 0.99417,-0.34141 1.25225,0.11976 0.42559,0.76048 2.11765,0.68902 3.16346,-0.13362 1.53711,-1.20908 2.44203,-1.21915 4.17297,-0.0464 1.93891,1.31362 3.90473,0.66086 3.86706,-1.28407 -0.0196,-1.01142 -0.64369,-1.23405 -1.70386,-0.60779 l -1.08437,0.64054 -0.73958,-0.66931 c -0.58258,-0.52723 -0.87259,-0.58626 -1.36608,-0.27807 -0.6572,0.41042 -3.2146,-0.13475 -3.2146,-0.68528 0,-0.43897 0.87663,-0.30189 1.60827,0.25149 0.96384,0.72901 1.27548,0.66259 1.14793,-0.24467 -0.16053,-1.14186 1.02667,-1.28169 1.44908,-0.17067 0.43856,1.15348 1.38235,1.46928 2.19449,0.73429 0.74705,-0.67606 0.27957,-1.64669 -0.62577,-1.29927 -0.33813,0.12975 -0.59458,-0.067 -0.72192,-0.554 -0.10862,-0.41538 -0.56483,-0.84743 -1.0138,-0.96011 -0.50473,-0.12668 -0.74524,-0.39009 -0.63011,-0.69011 0.31476,-0.82025 -2.65653,-2.05654 -3.84914,-1.60155 -1.09937,0.41943 -1.29868,1.09314 -0.32338,1.09314 0.35572,0 0.76559,0.11907 0.91082,0.26459 0.14523,0.14552 0.84638,0.44637 1.5581,0.66856 l 1.29404,0.40398 -1.32291,0.037 c -1.27895,0.0358 -1.7852,0.51865 -0.88195,0.84124 0.24254,0.0866 0.31328,0.29369 0.15721,0.46016 -0.3487,0.37192 -1.00153,-0.57655 -0.79183,-1.15042 0.24893,-0.68122 -0.70647,-1.20471 -2.33416,-1.27896 -1.15505,-0.0527 -1.52913,0.0597 -1.52913,0.45942 0,0.29104 0.31769,0.53507 0.70597,0.54229 1.01215,0.0188 1.58708,0.45825 1.58708,1.21302 0,0.36044 0.19844,0.73541 0.44097,0.83327 0.34693,0.13999 0.34507,0.18388 -0.009,0.20579 -0.24734,0.0153 -0.6055,-0.38193 -0.79592,-0.88277 -0.41142,-1.08211 -1.12378,-0.9659 -1.40595,0.22937 -0.30039,1.27248 -2.80114,1.37066 -4.43089,0.17395 l -0.67865,-0.49832 1.05834,-0.42597 c 0.58208,-0.23427 1.57861,-0.39962 2.21452,-0.36743 1.06972,0.0542 1.13946,-0.008 0.93253,-0.83257 -0.17934,-0.71455 -0.0645,-0.94999 0.57982,-1.18833 0.52793,-0.19529 0.66181,-0.38478 0.39039,-0.55253 -0.67815,-0.41911 -0.48657,-0.74578 1.01322,-1.72772 1.13908,-0.74578 1.46534,-0.83215 1.62009,-0.42887 0.26636,0.69412 1.36335,0.98922 2.135,0.57434 0.35169,-0.18909 0.93512,-0.43664 1.29652,-0.55011 0.9093,-0.2855 0.15318,-1.17596 -1.12388,-1.32355 -1.41719,-0.16379 -1.32075,-1.49936 0.11401,-1.57899 0.58208,-0.0323 1.57205,-0.26471 2.19993,-0.51646 1.46961,-0.58922 2.49179,0.10788 1.37126,0.93517 -0.44002,0.32487 -0.67449,0.95958 -0.69894,1.89202 -0.0238,0.9086 -0.16347,1.29848 -0.39619,1.10617 -0.47107,-0.38928 -2.17526,-0.0526 -2.65408,0.52437 -0.28699,0.34579 0.002,0.66409 1.21988,1.34493 1.13469,0.6342 1.66912,0.77337 1.84942,0.48163 0.15858,-0.25658 0.33014,-0.086 0.45791,0.45521 0.12753,0.54023 0.53095,0.94208 1.0734,1.06924 0.54499,0.12775 0.91112,0.49432 0.98181,0.98301 0.13805,0.95432 0.0428,0.95479 2.96356,-0.0145 2.49879,-0.82922 2.874,-1.25154 2.81936,-3.1733 -0.0152,-0.53451 0.1205,-0.97184 0.30155,-0.97184 0.18105,0 0.32919,-0.23812 0.32919,-0.52916 0,-0.31758 0.32568,-0.52917 0.81451,-0.52917 1.06558,0 2.18973,-0.83118 1.85553,-1.37194 -0.14573,-0.23579 -0.56811,-0.32285 -0.96112,-0.19811 -0.40828,0.12958 -0.94847,0.003 -1.29323,-0.30201 -0.32565,-0.2885 -0.90958,-0.61461 -1.29764,-0.72468 -0.9159,-0.25981 0.73398,0.0295 4.05695,0.71129 3.48247,0.71455 3.64751,0.87226 3.35582,3.20684 -0.39637,3.17249 -3.30004,6.9043 -5.72629,7.35947 -0.82779,0.15529 -1.30858,0.49052 -1.52683,1.06457 -0.41393,1.0887 -2.13632,1.22968 -1.85445,0.15178 0.17492,-0.66888 -1.72123,-1.58238 -2.45129,-1.18095 -0.51311,0.28213 0.47517,1.5143 1.21457,1.5143 h 0.74782 l -0.63228,0.69865 c -0.74069,0.81845 -1.74479,1.04542 -6.11509,1.38222 -0.29272,0.0226 -0.42314,0.39445 -0.35278,1.00593 l 0.11163,0.97014 2.73077,0.22188 c 1.73088,0.14063 3.08718,0.45674 3.70416,0.86333 l 0.9734,0.64146 -0.85579,0.20473 c -1.52931,0.36586 -0.524,1.77277 1.26674,1.77277 0.24567,0 0.93387,0.47625 1.52933,1.05833 0.59546,0.58209 1.20405,1.05834 1.35241,1.05834 0.14836,0 0.46502,0.54003 0.7037,1.20008 0.61632,1.7044 1.33112,2.23241 2.24746,1.66014 0.39518,-0.24679 0.84462,-0.31661 0.99875,-0.15516 0.52907,0.55418 2.10602,4.82511 2.11723,5.73423 0.006,0.50012 0.2443,1.21747 0.52917,1.5941 1.29844,1.7167 -0.20674,8.38342 -2.83152,12.54134 -1.24658,1.9747 -1.42865,1.77289 -0.23595,-0.26154 z m -79.249646,-14.743 c 1.731256,-5.85171 6.166399,-11.00366 7.711871,-8.95827 0.839208,1.11067 1.855084,0.4457 1.119215,-0.73261 -0.577105,-0.92409 -0.548669,-1.05431 0.230222,-1.05431 0.364298,0 0.859986,-0.23813 1.101529,-0.52917 0.241543,-0.29104 0.969172,-0.52917 1.616953,-0.52917 1.443024,0 2.61638,-1.13729 2.61638,-2.53596 0,-1.1113 -0.81646,-1.36137 -1.347369,-0.41269 -0.240381,0.42954 -0.586623,0.51668 -1.340447,0.33736 -0.558993,-0.13298 -1.693171,-0.22741 -2.520396,-0.20985 -1.14754,0.0243 -1.55699,-0.11833 -1.727409,-0.60194 -0.315177,-0.89441 -1.927512,-2.57414 -2.470859,-2.57414 -0.250268,0 -0.732838,-0.43656 -1.072378,-0.97014 -0.33954,-0.53358 -0.733903,-1.05507 -0.876361,-1.15887 -0.66691,-0.48594 -1.807117,-3.86814 -1.964342,-5.82682 -0.210711,-2.62502 0.298154,-3.21856 1.484178,-1.73114 0.850479,1.0666 1.797869,1.02577 2.195617,-0.0946 0.35392,-0.99693 1.231096,-1.86009 1.890302,-1.86009 0.334318,0 0.857012,-0.35719 1.161542,-0.79375 0.473427,-0.67868 0.556374,-0.70265 0.572196,-0.16532 0.01018,0.34564 -0.219621,0.71981 -0.510663,0.8315 -0.291042,0.11168 -0.529167,0.4144 -0.529167,0.6727 0,0.28968 -0.358628,0.4442 -0.935868,0.40323 -0.750996,-0.0533 -0.98997,0.12931 -1.209739,0.92438 -0.298393,1.07953 0.246916,1.56485 1.302941,1.15962 0.402967,-0.15464 0.510105,-0.0661 0.368038,0.30412 -0.110225,0.28724 0.02987,0.96373 0.311325,1.5033 0.281454,0.53958 0.512712,1.33522 0.513908,1.76808 0.0025,0.90932 1.224502,1.36566 2.679234,1.00055 l 0.913173,-0.22919 -0.240606,1.16108 c -0.303967,1.46685 -0.87144,1.90871 -2.828148,2.20214 -1.82497,0.27367 -2.091515,0.54939 -1.415873,1.46462 0.396005,0.53643 0.58289,0.58177 0.9412,0.22836 0.245895,-0.24254 0.653457,-0.44097 0.905693,-0.44097 0.749634,0 0.521245,0.70422 -0.335139,1.03337 l -0.79375,0.30508 0.993105,0.38911 c 1.124933,0.44076 2.473542,0.50903 2.838854,0.14372 0.471117,-0.47112 4.766727,-0.37908 4.952916,0.10612 0.09623,0.25076 -0.134444,0.55412 -0.512598,0.67414 -0.411157,0.1305 -0.687554,0.53493 -0.687554,1.00605 0,0.54904 -0.477762,1.08981 -1.576317,1.7842 -1.683947,1.06441 -1.762814,2.31932 -0.145762,2.31932 0.422805,0 0.66035,0.18293 0.572623,0.44097 -0.08245,0.24254 -0.608782,0.44097 -1.169615,0.44097 -0.690099,0 -1.058605,0.19955 -1.140069,0.61736 -0.135486,0.69488 -1.344815,0.84578 -1.561781,0.19488 -0.187,-0.561 -2.251382,0.26471 -2.539597,1.01579 -0.311108,0.81073 0.0048,1.05791 1.630511,1.27597 0.822541,0.11033 1.660458,0.42615 1.862039,0.70182 0.20158,0.27568 0.723088,0.61441 1.158905,0.75273 1.785856,0.56681 0.553804,1.59966 -1.920812,1.61025 -0.619139,0.003 -1.223821,0.16356 -1.343737,0.35759 -0.371197,0.60061 -0.881944,0.38913 -0.881944,-0.36519 0,-0.60051 -0.111628,-0.65822 -0.682364,-0.35278 -1.694929,0.9071 -3.233655,0.1623 -2.499343,-1.20977 0.672892,-1.25731 -0.18193,-2.25428 -1.382125,-1.61196 -1.457186,0.77986 -2.95047,4.18175 -1.60978,3.66728 0.333461,-0.12796 0.529167,0.004 0.529167,0.35712 0,0.30811 -0.398902,0.66031 -0.88645,0.78268 -0.487548,0.12237 -1.052387,0.48258 -1.255198,0.80047 -0.202811,0.31789 -0.319846,0.4127 -0.260077,0.21068 z"
         id="path62515" /><path
         style="fill:#5d5c6e"
         d="m 134.40834,190.15913 c 1.5178,-0.22993 1.1367,-0.80626 -0.52917,-0.80026 -1.098,0.004 -1.35767,0.0969 -0.97014,0.34738 1.59998,1.03398 -2.87292,-0.27614 -6.35,-1.85993 -1.06715,-0.48608 -2.48706,-1.29832 -3.15534,-1.80498 -0.66829,-0.50666 -1.42688,-0.9212 -1.68576,-0.9212 -0.79947,0 -4.70468,-2.11311 -4.91418,-2.65906 -0.10889,-0.28377 -0.43949,-0.51594 -0.73466,-0.51594 -0.82248,0 -4.02232,-1.93616 -5.83099,-3.52822 l -1.62001,-1.42598 -0.48768,0.69627 c -0.48836,0.69723 -1.75741,0.80705 -2.68701,0.23253 -0.25394,-0.15695 -0.70627,-0.0622 -1.04341,0.21846 -1.4103,1.17423 -3.24096,1.63081 -3.24096,0.80833 0,-1.59551 -2.291307,-2.45475 -2.822223,-1.05834 -0.217172,0.57121 -0.60827,0.88195 -1.110018,0.88195 -0.426087,0 -1.030874,0.23183 -1.34397,0.51518 -1.032328,0.93424 -4.571963,2.65982 -5.456027,2.65982 -0.477285,0 -0.963241,0.15444 -1.079904,0.34321 -2.734405,4.42436 -21.319487,1.86608 -25.311239,-3.48415 l -1.682178,-2.25465 v -3.25648 c 0,-5.5161 2.160624,-9.6775 6.787989,-13.0738 2.813201,-2.06477 2.848212,-1.67021 -0.433243,-4.88239 -1.554832,-1.52201 -2.826968,-2.99923 -2.826968,-3.2827 0,-0.28347 -0.299345,-0.93679 -0.665211,-1.45181 -1.570719,-2.21106 -1.858786,-13.81279 -0.342967,-13.81279 0.180096,0 0.149882,0.33178 -0.06714,0.73729 -0.970047,1.81255 -0.346949,9.55053 0.975083,12.10914 0.292248,0.5656 0.560379,1.44753 0.595847,1.95983 0.04605,0.66521 0.957563,1.79685 3.188834,3.95893 2.913187,2.82286 3.893985,4.61462 2.162265,3.95009 -0.577103,-0.22145 -2.190495,0.77096 -3.994626,2.45712 -1.777558,1.66133 -1.351277,1.85336 0.55187,0.2486 0.934119,-0.78766 1.829594,-1.43211 1.989945,-1.43211 0.160351,0 -0.483511,0.67469 -1.430804,1.49931 -2.911579,2.53452 -3.462587,3.30696 -4.655714,6.52664 -1.850745,4.99428 -1.414632,8.35743 1.490186,11.49178 0.480864,0.51886 1.159692,0.94265 1.508505,0.94175 0.49889,-0.001 0.389579,-0.23091 -0.512322,-1.07621 -0.63059,-0.59102 -1.146528,-1.17561 -1.146528,-1.29909 0,-0.12349 0.436563,0.18266 0.970139,0.68033 1.144952,1.06789 2.113673,1.59603 4.097588,2.23398 l 1.458663,0.46906 -1.5875,-0.16493 -1.587501,-0.16493 1.763889,0.72499 c 2.437142,1.00171 4.556626,1.33352 4.340415,0.6795 -0.08974,-0.27146 -0.706172,-0.59519 -1.369846,-0.71939 -0.663674,-0.12421 0.142696,-0.14208 1.791932,-0.0397 3.238973,0.20103 4.21655,0.44194 1.793287,0.44194 -1.045662,0 -1.453124,0.13343 -1.346675,0.44097 0.414843,1.19855 11.568681,-0.11328 13.117694,-1.54279 0.184327,-0.17011 0.805379,-0.30929 1.380117,-0.30929 1.209427,0 4.22183,-1.64316 3.916906,-2.13654 -0.260555,-0.42159 -1.328848,-0.43203 -1.769245,-0.0173 -0.184326,0.17358 -0.890764,0.41126 -1.569861,0.52817 l -1.234722,0.21256 1.379291,-0.52922 c 4.597153,-1.76389 6.314327,-3.17329 5.663559,-4.64846 -0.155565,-0.35264 -0.323113,-1.95946 -0.372328,-3.5707 -0.05196,-1.70102 -0.274965,-3.15304 -0.531783,-3.46248 -0.549971,-0.66268 -0.73656,-14.50853 -0.249023,-18.47882 0.494919,-4.03041 3.394612,-12.7 4.247735,-12.7 0.148222,0 0.269497,-0.23812 0.269497,-0.52917 0,-0.31001 -0.321423,-0.52916 -0.776114,-0.52916 -0.587857,0 -0.677054,-0.0991 -0.367729,-0.40839 0.309324,-0.30932 0.536615,-0.30195 0.937046,0.0304 0.970067,0.80508 1.633547,-0.36807 1.057367,-1.86959 -0.15561,-0.40551 -0.35486,-0.45088 -0.79375,-0.18073 -0.422629,0.26013 -0.930203,0.20094 -1.820712,-0.21234 -1.127045,-0.52306 -0.710287,-0.51096 1.035738,0.0301 0.572192,0.1773 0.719494,-0.009 0.908244,-1.14653 0.68014,-4.10033 0.80094,-4.29428 0.84586,-1.35815 0.0238,1.55222 0.18552,3.04709 0.35949,3.32194 0.17831,0.28171 0.18578,0.84303 0.0171,1.28664 -0.38022,1.00005 -0.0918,1.29078 0.80458,0.81105 0.51434,-0.27527 0.92755,-0.25635 1.53811,0.0704 0.64779,0.34669 1.03762,0.3544 1.73995,0.0344 1.65815,-0.7555 3.7651,1.17739 3.87837,3.55797 0.25219,5.3007 0.86592,9.53627 1.44293,9.95819 0.52709,0.38541 0.54852,0.58558 0.16247,1.51758 -0.35338,0.85312 -0.35827,1.76039 -0.0238,4.4175 0.32611,2.59086 0.32601,4.1788 -4.5e-4,7.05144 -0.23174,2.03915 -0.38425,4.081 -0.33891,4.53744 0.0453,0.45644 -0.007,1.06802 -0.11633,1.35906 -0.10932,0.29104 -0.29044,1.08479 -0.40249,1.76389 -0.11205,0.6791 -0.3566,1.86972 -0.54345,2.64583 -0.18685,0.77612 -0.44472,1.84768 -0.57304,2.38126 -0.17015,0.70753 -0.0996,0.97013 0.26069,0.97013 0.2717,0 1.35642,0.55563 2.41048,1.23473 1.05407,0.67909 1.66863,1.23472 1.3657,1.23472 -0.30293,0 -0.8238,-0.30167 -1.15748,-0.67039 -0.33368,-0.36871 -0.91391,-0.75072 -1.2894,-0.84891 -1.10349,-0.28857 -0.80325,0.66706 0.46382,1.47631 0.63059,0.40275 1.70216,1.10483 2.38125,1.56018 1.63383,1.09551 2.15549,1.25927 2.99861,0.9413 l 0.70556,-0.26609 -0.70556,-0.2743 c -1.08403,-0.42143 -2.78621,-1.9181 -2.18147,-1.9181 0.28517,0 0.60071,0.21427 0.7012,0.47615 0.20143,0.5249 5.61897,3.4044 6.4051,3.4044 0.27106,0 0.70261,0.19844 0.959,0.44098 4.16911,3.94374 15.45923,7.59058 15.45923,4.9935 0,-0.38782 0.17463,-0.40089 0.90568,-0.0678 3.65913,1.66721 9.6045,-11.06099 6.96046,-14.90138 -0.56551,-0.82139 -0.56551,-0.84401 0,-0.38807 0.5275,0.42529 0.60053,0.39663 0.60053,-0.23573 0,-0.9955 -0.37039,-1.8667 -0.70556,-1.65955 -0.15336,0.0948 -0.37304,-0.0731 -0.48816,-0.37313 -0.11986,-0.31235 -0.0603,-0.45335 0.13943,-0.32993 0.19955,0.12333 0.34873,-0.22762 0.34873,-0.82043 0,-1.06122 -0.77828,-2.04262 -1.34305,-1.69358 -0.17359,0.10729 -0.5095,-0.47435 -0.74646,-1.29254 -0.92316,-3.18758 -4.54115,-7.50841 -5.28256,-6.30878 -0.21412,0.34645 -0.37513,0.32411 -0.72796,-0.10103 -0.24916,-0.30022 -0.67814,-0.54586 -0.95328,-0.54586 -0.27514,0 -0.93404,-0.32071 -1.46423,-0.71269 -0.53265,-0.39381 -1.8277,-0.81499 -2.89438,-0.94132 -1.70553,-0.202 -1.82269,-0.26455 -1.00567,-0.53689 0.70347,-0.23449 1.40999,-0.0936 2.95257,0.58855 2.94339,1.3017 3.82766,0.97935 1.41085,-0.51432 -1.48751,-0.91933 -1.55543,-1.33037 -0.26458,-1.60122 1.55863,-0.32704 4.70194,-2.03742 5.25579,-2.85985 0.28034,-0.41629 0.81982,-0.83799 1.19884,-0.93711 0.37901,-0.0991 0.68912,-0.35382 0.68912,-0.56601 0,-0.48296 -0.59021,-0.50506 -0.88194,-0.033 -0.11992,0.19403 -0.39383,0.35278 -0.60869,0.35278 -0.21486,0 0.23107,-0.59531 0.99096,-1.32292 2.9028,-2.77947 4.7188,-9.35039 3.1957,-11.56317 -0.26343,-0.38272 -0.67059,-1.28503 -0.9048,-2.00514 -0.26076,-0.80174 -1.40844,-2.30202 -2.96061,-3.8702 -1.39413,-1.4085 -2.00849,-2.1687 -1.36525,-1.68933 2.10177,1.56633 4.27986,4.02147 4.68533,5.28131 0.21856,0.6791 0.65225,1.6316 0.96376,2.11667 3.31679,5.16478 -2.27133,14.93721 -9.99363,17.47673 l -0.70555,0.23202 0.66845,0.40604 c 0.66422,0.40348 4.81264,3.78932 5.89435,4.81083 0.59496,0.56184 2.67628,3.79598 3.40861,5.2966 0.23673,0.48507 0.57778,1.12007 0.75789,1.41111 0.72893,1.17789 2.0884,7.26392 1.8911,8.46598 -0.15563,0.94815 -0.25621,1.08107 -0.43416,0.57377 -0.15981,-0.45557 -0.41829,0.11317 -0.83375,1.83444 -0.91529,3.7922 -2.72705,7.37733 -4.34238,8.59277 -1.62723,1.2244 -1.72507,1.34693 -1.07552,1.34693 1.6063,0 5.8478,-5.87326 5.91863,-8.19559 0.0193,-0.63416 0.16696,-1.54989 0.32805,-2.03496 0.18949,-0.57061 0.22906,-0.14196 0.11209,1.21429 -0.53548,6.20896 -5.09673,10.48722 -11.05864,10.37255 -1.45521,-0.028 -2.20927,-0.11702 -1.67569,-0.19785 z M 108.1484,176.53346 c 0.25465,-0.52242 0.61216,-2.3917 0.79448,-4.15395 0.18232,-1.76226 0.45023,-3.38685 0.59535,-3.61021 0.93672,-1.44173 1.37125,-11.7088 0.5759,-13.60771 -0.29078,-0.69426 -0.48936,-1.97666 -0.44128,-2.84979 0.0797,-1.44654 0.0188,-1.58003 -0.68543,-1.50346 -1.009,0.10971 -1.06907,-1.159 -0.0673,-1.42098 0.96872,-0.25332 0.88555,-0.90514 -0.16654,-1.30514 -1.07216,-0.40764 -1.30158,-1.28202 -1.11171,-4.23708 0.081,-1.26118 -0.007,-2.48276 -0.19624,-2.71461 -0.5677,-0.69658 -0.1961,-2.04771 0.56365,-2.04939 1.07986,-0.002 1.03364,-0.74496 -0.0965,-1.54967 -1.78349,-1.26996 -3.67747,-0.21214 -3.34029,1.86562 0.28365,1.74792 -2.05241,5.13187 -2.51859,3.64835 -0.76248,-2.42647 -0.40593,-4.78593 0.66134,-4.37639 0.50236,0.19278 0.50872,-1.22189 0.008,-1.82349 -0.69249,-0.83232 -3.32835,2.75987 -3.32835,4.53592 0,0.40414 -0.216908,1.16348 -0.482018,1.68743 -0.502629,0.99335 -1.10517,3.53972 -0.969387,4.09667 0.145266,0.59585 -0.746683,2.324 -1.199484,2.324 -0.574705,0 -0.957063,0.96714 -0.495207,1.25259 0.221014,0.13659 0.26909,1.74014 0.129902,4.33282 -0.366159,6.82054 -0.309091,11.47422 0.142555,11.62477 0.251898,0.084 0.404195,1.05592 0.404195,2.57956 0,1.34466 0.133964,2.72049 0.297699,3.05741 0.163735,0.33692 0.478661,0.96349 0.699836,1.39238 0.221174,0.42889 0.317057,1.00151 0.213071,1.2725 -0.229912,0.59914 1.650927,1.46335 2.628448,1.20772 0.36793,-0.0962 0.87111,-0.05 1.1182,0.10271 0.52286,0.32315 2.45108,-0.97135 2.45108,-1.64552 0,-0.24373 0.38583,-0.88856 0.8574,-1.43296 1.18993,-1.37368 1.84196,-0.7443 1.09097,1.05307 -0.67364,1.61225 -0.67526,2.01406 -0.008,2.01406 0.30103,0 0.52916,0.31685 0.52916,0.73496 0,0.98109 0.76032,0.69719 1.34493,-0.50219 z"
         id="path62514" /><path
         style="fill:#246b8e"
         d="m 119.50347,169.92908 c 0,-0.24236 -0.5456,-0.29258 -1.54715,-0.14239 -1.87872,0.28174 -2.68444,-0.10825 -3.42504,-1.65778 -1.14128,-2.38782 -1.33244,-3.36405 -0.76908,-3.92742 0.70084,-0.70084 0.28409,-2.61048 -0.63324,-2.90163 -0.92685,-0.29417 -0.86194,-0.87417 0.0978,-0.87417 0.42839,0 1.39148,-0.59531 2.14021,-1.32291 1.2557,-1.22027 1.39674,-1.27502 1.81765,-0.70556 0.25928,0.35077 0.91605,0.61736 1.52094,0.61736 0.70392,0 1.2532,0.26892 1.62126,0.79375 0.46548,0.66374 0.61322,0.70975 0.90203,0.28089 0.28013,-0.41598 0.49966,-0.43323 1.16207,-0.0913 0.44918,0.23185 1.13419,0.41778 1.52225,0.41318 1.1487,-0.0136 5.36569,0.61926 4.47709,0.67191 -0.98493,0.0584 -0.70453,0.66316 0.52401,1.13025 1.27736,0.48566 2.42336,-0.18282 1.17251,-0.68393 l -0.88195,-0.35333 1.15526,-0.0224 c 0.93398,-0.0181 1.22305,0.15594 1.50918,0.90851 0.4661,1.22593 0.45055,1.2321 -1.9806,0.78626 -1.15222,-0.21131 -2.8887,-0.3614 -3.85884,-0.33355 -0.97013,0.0279 -2.62355,-0.11417 -3.67426,-0.31561 -1.5744,-0.30185 -2.01358,-0.27286 -2.49722,0.16483 -0.34629,0.31338 -1.26236,0.53109 -2.23477,0.53109 -2.62623,0 -2.07741,0.98689 0.81997,1.47445 5.66172,0.95274 6.86778,1.06264 7.47818,0.68144 0.74456,-0.46499 1.6956,-0.51581 1.6956,-0.0906 0,0.16577 1.81415,0.30806 4.03144,0.3162 2.2173,0.008 4.20167,0.12 4.40973,0.24859 0.58206,0.35973 0.46416,1.95604 -0.14447,1.95604 -0.28751,0 -1.05434,0.51594 -1.70407,1.14653 l -1.18131,1.14652 -2.97024,-0.0395 c -1.63363,-0.0218 -3.76914,-0.15884 -4.74557,-0.30464 -1.28924,-0.1925 -2.23438,-0.10923 -3.45191,0.30414 -1.96843,0.6683 -2.35749,0.70045 -2.35749,0.19482 z m -5.88605,-14.93806 -0.9865,-0.84855 0.62408,-0.68961 c 0.7394,-0.81703 0.3611,-2.29697 -0.69186,-2.70665 -0.59312,-0.23077 -0.57522,-0.30711 0.22501,-0.95967 l 0.86941,-0.70896 -0.83415,-0.6292 c -0.66356,-0.50052 -0.85596,-1.01754 -0.94079,-2.52803 -0.28087,-5.00153 -0.47136,-6.40752 -0.94197,-6.95287 -0.28022,-0.32472 -0.68854,-1.14602 -0.90737,-1.82512 -0.3617,-1.12243 -0.35021,-1.17245 0.12643,-0.54994 0.28838,0.37664 0.52432,0.87927 0.52432,1.11696 0,0.2377 0.47625,0.64298 1.05833,0.90064 0.59624,0.26392 1.05834,0.73892 1.05834,1.0879 0,0.76563 1.25135,0.83905 1.53868,0.0903 0.11168,-0.29104 0.59555,-0.52917 1.07526,-0.52917 0.47971,0 0.97191,-0.16133 1.09378,-0.35853 0.44746,-0.724 0.79887,0.0336 0.40411,0.87124 -0.41829,0.88756 -1.82331,1.75181 -2.33441,1.43594 -0.1575,-0.0973 -0.49529,0.0747 -0.75065,0.38244 -0.39006,0.46999 -0.36825,0.61316 0.13642,0.89559 0.33038,0.18489 0.60193,0.52671 0.60345,0.7596 0.007,1.08232 2.93663,1.64843 4.07496,0.78744 0.37663,-0.28487 1.10283,-0.52299 1.61378,-0.52916 0.8477,-0.0102 1.33774,-0.682 1.35924,-1.8633 0.0102,-0.5611 -1.14636,-0.22809 -1.73574,0.49976 -0.46818,0.57818 -1.00402,0.76436 -2.19996,0.76436 -2.78137,0 -3.11811,-0.86293 -0.60122,-1.54066 1.07122,-0.28844 1.373,-0.52123 1.21375,-0.93624 -0.11658,-0.30379 -0.0132,-0.79187 0.22978,-1.08461 0.24296,-0.29275 0.44414,-0.76865 0.44706,-1.05755 0.003,-0.28891 0.3671,-0.76606 0.80927,-1.06033 l 0.80396,-0.53504 -0.29916,0.84356 c -0.60181,1.69695 0.3241,2.76968 1.33708,1.54911 0.61214,-0.73759 1.65891,-0.65984 2.37491,0.17638 0.72892,0.85132 0.93807,0.86996 1.66008,0.14795 0.6846,-0.6846 0.41666,-1.20628 -0.61956,-1.20628 -0.42695,0 -0.97219,-0.31373 -1.21166,-0.69718 -0.33665,-0.53906 -0.67595,-0.64908 -1.49597,-0.48507 -1.14958,0.22991 -1.25398,0.0861 -0.69539,-0.95761 0.44047,-0.82302 1.30315,-0.87819 2.12348,-0.1358 0.33217,0.30061 1.17483,0.58308 1.87258,0.62772 1.6838,0.10772 2.19045,0.62734 1.57675,1.61711 -0.39731,0.64078 -0.38998,0.80766 0.0474,1.07975 0.56338,0.35048 1.5445,-0.21407 1.23692,-0.71174 -0.34215,-0.5536 0.37805,-0.62327 1.51244,-0.14629 1.33611,0.56179 1.55975,1.33825 0.29395,1.02056 -0.467,-0.11721 -1.21543,-0.017 -1.66319,0.22258 -0.44775,0.23963 -1.29597,0.45157 -1.88494,0.47097 -1.44812,0.0477 -1.55731,1.39017 -0.12652,1.55553 1.27706,0.14759 2.03318,1.03805 1.12388,1.32355 -0.3614,0.11347 -0.94483,0.36102 -1.29652,0.55011 -0.77165,0.41488 -1.86864,0.11978 -2.135,-0.57434 -0.15475,-0.40328 -0.48101,-0.31691 -1.62009,0.42887 -1.49979,0.98194 -1.69137,1.30861 -1.01322,1.72772 0.27142,0.16775 0.13754,0.35724 -0.39039,0.55253 -0.64428,0.23834 -0.75916,0.47378 -0.57982,1.18833 0.20693,0.82447 0.13719,0.88673 -0.93253,0.83257 -0.63591,-0.0322 -1.63244,0.13316 -2.21452,0.36743 l -1.05834,0.42597 0.67865,0.49832 c 1.62975,1.19671 4.1305,1.09853 4.43089,-0.17395 0.28217,-1.19527 0.99453,-1.31148 1.40595,-0.22937 0.19042,0.50084 0.62796,0.91759 0.97231,0.92611 0.34435,0.009 1.24211,0.23505 1.99503,0.50341 1.03939,0.37048 1.52295,0.39175 2.00874,0.0884 0.5102,-0.31862 0.78962,-0.26398 1.37939,0.26976 l 0.73958,0.66931 1.08437,-0.64054 c 1.06017,-0.62626 1.68427,-0.40363 1.70386,0.60779 0.0377,1.94493 -1.92815,2.59769 -3.86706,1.28407 -1.73094,-1.17272 -2.63586,-1.16265 -4.17297,0.0464 -1.04581,0.82264 -2.73787,0.8941 -3.16346,0.13362 -0.25808,-0.46117 -0.46045,-0.48053 -1.25225,-0.11976 -1.12467,0.51243 -1.2269,1.23818 -0.21944,1.55794 1.35576,0.4303 0.48112,1.05077 -1.63479,1.15973 -1.14884,0.0592 -2.23961,0.2576 -2.42394,0.44097 -0.56767,0.56474 -1.52041,0.37244 -2.5523,-0.51515 z M 66.027726,143.31983 c -0.34855,-0.53196 -0.812208,-0.8412 -1.09724,-0.73182 -0.548158,0.21034 -0.325989,-3.29351 0.281974,-4.44705 0.195009,-0.37001 0.170886,-0.6354 -0.0649,-0.714 -0.590607,-0.19687 1.052337,-2.04849 1.817626,-2.04849 0.817616,0 0.828658,0.10025 0.154618,1.4037 -0.98554,1.90582 -0.08832,3.99511 1.001431,2.33195 0.678764,-1.03593 2.930949,-1.88083 3.499098,-1.31268 0.210354,0.21036 0.552926,0.25529 0.761272,0.0998 1.04768,-0.78165 3.468549,-1.17177 3.996307,-0.64402 0.632736,0.63274 2.556115,0.12213 2.556115,-0.67859 0,-0.63318 0.704537,-0.6325 1.609786,0.002 0.389644,0.27291 1.447248,0.607 2.350231,0.74241 0.902984,0.13541 1.901303,0.53296 2.218487,0.88345 0.539433,0.59606 0.64141,0.6001 1.578105,0.0625 l 1.001406,-0.57473 0.70262,0.8677 0.70262,0.86769 0.726067,-0.65708 c 0.399337,-0.36139 0.970104,-0.56343 1.268373,-0.44898 0.298268,0.11446 0.542306,0.0713 0.542306,-0.0959 0,-0.16718 -0.238125,-0.39534 -0.529167,-0.50702 -0.843001,-0.32349 -0.612832,-0.93076 0.352778,-0.93076 0.851712,0 0.94444,0.13782 1.022371,1.51957 0.04667,0.82754 1.703542,1.83556 2.509039,1.52646 l 0.621574,-0.23852 -0.63412,-0.70069 c -1.069628,-1.18193 -0.904647,-2.81243 0.284569,-2.8124 0.555115,1e-5 1.071119,0.23432 1.18825,0.53956 0.175322,0.45688 0.268201,0.46443 0.606289,0.0493 0.219588,-0.26964 0.70785,-0.59863 1.085027,-0.73111 l 0.685776,-0.24087 -0.667008,0.73704 c -0.401886,0.44408 -0.681151,1.30069 -0.702587,2.1551 -0.03816,1.52098 -0.533001,2.06289 -1.891784,2.07171 -0.571388,0.004 -0.771477,0.16181 -0.639637,0.50538 0.204386,0.53262 -0.668043,1.04788 -1.208596,0.7138 -0.177649,-0.10979 -0.871945,-0.001 -1.54288,0.24149 -1.036759,0.3749 -1.314475,0.35772 -1.850027,-0.11442 -0.406726,-0.35857 -1.025524,-0.49457 -1.745297,-0.38359 -0.876793,0.1352 -1.199915,0.0136 -1.511718,-0.56904 -0.46112,-0.86161 -1.979171,-1.05588 -1.655279,-0.21183 0.243935,0.63569 -0.139502,0.66935 -1.348711,0.11839 -0.689373,-0.31409 -1.08766,-0.31182 -1.692293,0.01 -0.762927,0.40564 -3.733588,-0.59537 -3.237901,-1.09106 0.09414,-0.0941 -0.07753,-0.37755 -0.381484,-0.62981 -0.397164,-0.32962 -0.660289,-0.35101 -0.935263,-0.076 -0.249495,0.24949 -0.675226,0.27137 -1.223605,0.0629 -1.442691,-0.54851 -3.944371,0.009 -5.063635,1.12808 -0.553892,0.55389 -1.237974,1.00707 -1.520184,1.00707 -0.557814,0 -1.238971,0.70249 -1.829309,1.88658 -0.545835,1.09484 -1.455886,1.11919 -2.151491,0.0576 z"
         id="path62513" /><path
         style="fill:#4b385f"
         d="m 106.80347,177.03565 c 0,-0.41811 -0.22813,-0.73496 -0.52916,-0.73496 -0.66717,0 -0.66555,-0.40181 0.008,-2.01406 0.75099,-1.79737 0.099,-2.42675 -1.09097,-1.05307 -0.47157,0.5444 -0.8574,1.18923 -0.8574,1.43296 0,0.67417 -1.92822,1.96867 -2.45108,1.64552 -0.24709,-0.1527 -0.75027,-0.19892 -1.1182,-0.10271 -0.977521,0.25563 -2.85836,-0.60858 -2.628448,-1.20772 0.103986,-0.27099 0.0081,-0.84361 -0.213071,-1.2725 -0.221175,-0.42889 -0.536101,-1.05546 -0.699836,-1.39238 -0.163735,-0.33692 -0.297699,-1.71275 -0.297699,-3.05741 0,-1.52364 -0.152297,-2.4956 -0.404195,-2.57956 -0.451646,-0.15055 -0.508714,-4.80423 -0.142555,-11.62477 0.139188,-2.59268 0.09111,-4.19623 -0.129902,-4.33282 -0.461856,-0.28545 -0.0795,-1.25259 0.495207,-1.25259 0.452801,0 1.34475,-1.72815 1.199484,-2.324 -0.135783,-0.55695 0.466758,-3.10332 0.969387,-4.09667 0.26511,-0.52395 0.482018,-1.28329 0.482018,-1.68743 0,-1.77605 2.63586,-5.36824 3.32835,-4.53592 0.50052,0.6016 0.49416,2.01627 -0.008,1.82349 -1.06727,-0.40954 -1.42382,1.94992 -0.66134,4.37639 0.46618,1.48352 2.80224,-1.90043 2.51859,-3.64835 -0.33718,-2.07776 1.5568,-3.13558 3.34029,-1.86562 1.13011,0.80471 1.17633,1.54728 0.0965,1.54967 -0.75975,0.002 -1.13135,1.35281 -0.56365,2.04939 0.18896,0.23185 0.27727,1.45343 0.19624,2.71461 -0.18987,2.95506 0.0395,3.82944 1.11171,4.23708 1.05209,0.4 1.13526,1.05182 0.16654,1.30514 -1.00179,0.26198 -0.94172,1.53069 0.0673,1.42098 0.70421,-0.0766 0.76508,0.0569 0.68543,1.50346 -0.0481,0.87313 0.1505,2.15553 0.44128,2.84979 0.79535,1.89891 0.36082,12.16598 -0.5759,13.60771 -0.14512,0.22336 -0.41303,1.84795 -0.59535,3.61021 -0.39615,3.8291 -2.13941,7.62306 -2.13941,4.65614 z"
         id="path62512" /><path
         style="fill:#1b4e6f"
         d="m 115.35834,144.07094 c -0.43657,-0.21621 -0.79375,-0.5857 -0.79375,-0.82109 0,-0.2354 -0.27032,-0.57926 -0.6007,-0.76415 -0.50467,-0.28243 -0.52648,-0.4256 -0.13642,-0.89559 0.25536,-0.30769 0.59315,-0.47978 0.75065,-0.38244 0.5111,0.31587 1.91612,-0.54838 2.33441,-1.43594 0.39476,-0.83761 0.0433,-1.59524 -0.40411,-0.87124 -0.12187,0.1972 -0.61407,0.35853 -1.09378,0.35853 -0.47971,0 -0.96358,0.23813 -1.07526,0.52917 -0.28733,0.74878 -1.53868,0.67536 -1.53868,-0.0903 0,-0.34069 -0.43657,-0.81821 -0.97014,-1.06115 -1.51145,-0.68816 -2.76809,-4.06447 -1.93488,-5.19858 0.14255,-0.19403 0.57482,-0.5909 0.9606,-0.88194 l 0.70142,-0.52917 -0.61821,0.88194 c -1.00677,1.43628 -1.04307,1.66349 -0.41808,2.61734 0.44337,0.67667 0.89781,0.91044 1.76987,0.91044 0.64533,0 1.27035,0.15699 1.38894,0.34886 0.13203,0.21362 0.55386,0.12722 1.08819,-0.22289 0.805,-0.52745 0.92186,-0.52715 1.50869,0.004 1.18169,1.06942 3.34426,0.53385 3.91595,-0.9698 0.23148,-0.60885 0.78246,-0.90429 2.334,-1.25151 l 2.03098,-0.45452 0.58921,0.78115 0.58922,0.78114 2.61615,-0.41623 c 1.43888,-0.22892 3.2733,-0.46759 4.07649,-0.53037 0.80319,-0.0628 1.77714,-0.21469 2.16433,-0.33758 0.51662,-0.16397 0.95299,0.0725 1.63964,0.88855 0.87287,1.03734 0.97809,1.07359 1.56762,0.54007 0.80871,-0.73187 0.95717,-0.72031 1.8192,0.14173 0.55604,0.55603 0.86256,0.63395 1.38792,0.35278 0.90984,-0.48693 0.96251,-0.4704 1.18256,0.37109 0.16475,0.63 0.29753,0.67515 0.95331,0.32419 0.41904,-0.22426 0.80008,-0.3552 0.84676,-0.29098 0.86235,1.18652 1.61523,3.44548 1.60041,4.80195 l -0.0182,1.66483 -0.53056,-1.27738 -0.53056,-1.27737 -1.56102,0.17595 c -1.07025,0.12063 -1.82552,0.003 -2.40234,-0.3753 -0.60801,-0.39839 -0.94812,-0.44445 -1.22646,-0.16611 -0.26152,0.26152 -0.75802,0.27866 -1.54684,0.0534 -1.43327,-0.4093 -1.81714,-1.74122 -0.62855,-2.18091 l 0.75918,-0.28084 -0.88332,-0.40247 c -0.77545,-0.35332 -0.95129,-0.29873 -1.43992,0.447 -0.66,1.0073 -0.71256,1.57985 -0.14502,1.57985 0.22637,0 0.32626,0.0853 0.22198,0.1896 -0.10428,0.10428 -0.61875,-0.006 -1.14327,-0.24492 -0.74177,-0.33797 -1.10357,-0.34091 -1.6283,-0.0132 -0.8329,0.52015 -1.74254,0.54704 -1.74254,0.0515 0,-0.20339 -0.51436,-0.58608 -1.14303,-0.85041 -1.13439,-0.47698 -1.85459,-0.40731 -1.51244,0.14629 0.30758,0.49767 -0.67354,1.06222 -1.23692,0.71174 -0.43737,-0.27209 -0.4447,-0.43897 -0.0474,-1.07975 0.6137,-0.98977 0.10705,-1.50939 -1.57675,-1.61711 -0.69775,-0.0446 -1.54041,-0.32711 -1.87258,-0.62772 -0.82033,-0.74239 -1.68301,-0.68722 -2.12348,0.1358 -0.55859,1.04375 -0.45419,1.18752 0.69539,0.95761 0.82002,-0.16401 1.15932,-0.054 1.49597,0.48507 0.23947,0.38345 0.78471,0.69718 1.21166,0.69718 1.03622,0 1.30416,0.52168 0.61956,1.20628 -0.72201,0.72201 -0.93116,0.70337 -1.66008,-0.14795 -0.716,-0.83622 -1.76277,-0.91397 -2.37491,-0.17638 -1.01298,1.22057 -1.93889,0.14784 -1.33708,-1.54911 l 0.29916,-0.84356 -0.80396,0.53504 c -0.44217,0.29427 -0.80634,0.77142 -0.80927,1.06033 -0.003,0.2889 -0.2041,0.7648 -0.44706,1.05755 -0.24296,0.29274 -0.34636,0.78082 -0.22978,1.08461 0.15925,0.41501 -0.14253,0.6478 -1.21375,0.93624 -2.51689,0.67773 -2.18015,1.54066 0.60122,1.54066 1.19594,0 1.73178,-0.18618 2.19996,-0.76436 0.85048,-1.05029 1.89437,-1.03123 1.61013,0.0294 -0.11699,0.43656 -0.21488,0.91281 -0.21753,1.05834 -0.003,0.14552 -0.44138,0.26963 -0.97495,0.2758 -0.53358,0.006 -1.2783,0.24429 -1.65493,0.52916 -0.78483,0.59362 -2.1309,0.60928 -3.28396,0.0382 z m -48.547216,-5.18962 c -0.133407,-0.66704 -0.0148,-1.47361 0.308681,-2.09915 0.712116,-1.37708 0.671182,-1.51383 -0.392289,-1.31054 -1.031536,0.19719 -1.026501,-1.16742 0.01015,-2.74954 0.539506,-0.82339 4.84549,-3.02232 6.089717,-3.10983 1.160131,-0.0816 1.095222,0.60491 -0.09112,0.96371 -1.829755,0.5534 -4.205818,1.92068 -4.323239,2.48776 -0.179871,0.86867 1.120575,0.66285 2.047774,-0.32411 1.524663,-1.62293 3.36384,-2.3419 5.031945,-1.96711 1.549801,0.34822 2.382954,0.0317 2.382954,-0.90529 0,-1.06376 7.401953,-0.36027 13.229168,1.25731 1.883468,0.52283 2.197384,0.69031 1.322917,0.70582 -1.273887,0.0226 -1.534233,0.5553 -0.440973,0.90229 0.388056,0.12316 0.705556,0.35688 0.705556,0.51937 0,0.3479 -2.73231,0.0506 -3.59278,-0.39089 -0.326793,-0.16768 -0.876749,-0.30487 -1.222123,-0.30487 -1.224542,0 0.426327,1.14433 2.057689,1.42632 0.83737,0.14475 2.466046,0.52403 3.61928,0.84285 2.3194,0.64121 4.103393,0.7963 4.72695,0.41092 0.224514,-0.13876 0.408207,-0.0802 0.408207,0.13004 0,0.21028 -0.396875,0.53322 -0.881945,0.71764 -0.485069,0.18443 -0.886772,0.53769 -0.892672,0.78502 -0.0062,0.26159 -0.161142,0.19146 -0.370307,-0.16765 -0.201967,-0.34676 -0.777132,-0.61738 -1.312189,-0.61739 -1.160904,-3e-5 -1.310791,1.64683 -0.255968,2.8124 l 0.63412,0.70069 -0.621574,0.23852 c -0.805497,0.3091 -2.462365,-0.69892 -2.509039,-1.52646 -0.07793,-1.38175 -0.170659,-1.51957 -1.022371,-1.51957 -0.96561,0 -1.195779,0.60727 -0.352778,0.93076 0.291042,0.11168 0.529167,0.33984 0.529167,0.50702 0,0.16718 -0.244038,0.21032 -0.542306,0.0959 -0.298269,-0.11445 -0.869036,0.0876 -1.268373,0.44898 l -0.726067,0.65708 -0.70262,-0.86769 -0.70262,-0.8677 -1.001406,0.57473 c -0.936695,0.53758 -1.038672,0.53354 -1.578105,-0.0625 -0.317184,-0.35049 -1.315503,-0.74804 -2.218487,-0.88345 -0.902983,-0.13541 -1.960587,-0.4695 -2.350231,-0.74241 -0.905249,-0.63406 -1.609786,-0.63474 -1.609786,-0.002 0,0.80072 -1.923379,1.31133 -2.556115,0.67859 -0.531091,-0.53109 -3.073641,-0.11742 -3.944242,0.64172 -0.17971,0.1567 -0.530753,0.1156 -0.780097,-0.0913 -0.661289,-0.54883 -2.846201,0.25928 -3.532338,1.30646 -0.738803,1.12756 -1.049067,1.07242 -1.310112,-0.2328 z"
         id="path62511" /><path
         style="fill:#203157"
         d="m 113.64199,136.79172 c -0.17167,-0.16754 -0.83943,-0.35562 -1.4839,-0.41796 -1.85903,-0.17983 -2.53885,-1.5963 -1.46391,-3.05024 0.88863,-1.20194 4.73962,-2.75516 6.0084,-2.42337 0.37686,0.0986 0.60055,0.0422 0.49708,-0.12519 -0.42047,-0.68035 1.58773,-1.49106 3.15974,-1.27559 1.30918,0.17944 1.617,0.0998 2.0324,-0.52583 0.73047,-1.10015 4.56441,-0.65128 5.24138,0.61365 0.54474,1.01785 1.61566,1.11979 1.91327,0.18211 0.33995,-1.0711 2.53217,-0.93353 2.81075,0.17639 0.23089,0.91994 1.25739,1.17914 1.25739,0.3175 0,-0.63294 1.09752,-0.70165 1.69317,-0.10599 0.23275,0.23275 1.05249,0.45552 1.82164,0.49506 2.46666,0.12678 7.5234,5.02705 6.19211,6.00051 -0.71676,0.5241 -1.24026,0.34971 -1.24026,-0.41318 0,-0.60359 -0.17601,-0.62777 -1.07344,-0.14748 -0.52536,0.28117 -0.83188,0.20325 -1.38792,-0.35278 -0.86203,-0.86204 -1.01049,-0.8736 -1.8192,-0.14173 -0.58953,0.53352 -0.69475,0.49727 -1.56762,-0.54007 -0.68665,-0.81605 -1.12302,-1.05252 -1.63964,-0.88855 -0.38719,0.12289 -1.36114,0.2748 -2.16433,0.33758 -0.80319,0.0628 -2.63761,0.30145 -4.07649,0.53037 l -2.61615,0.41623 -0.58922,-0.78114 -0.58921,-0.78115 -2.03098,0.45452 c -1.55154,0.34722 -2.10252,0.64266 -2.334,1.25151 -0.57169,1.50365 -2.73426,2.03922 -3.91595,0.9698 -0.5796,-0.52453 -0.71102,-0.52658 -1.47955,-0.023 -0.4762,0.31202 -0.97934,0.42002 -1.15556,0.24804 z"
         id="path62510" /></g></g></svg>
