<?xml version="1.0" encoding="UTF-8" standalone="no"?>
<svg
   width="104.29826mm"
   height="110.77554mm"
   clip-rule="evenodd"
   fill-rule="evenodd"
   image-rendering="optimizeQuality"
   shape-rendering="geometricPrecision"
   text-rendering="geometricPrecision"
   version="1.1"
   viewBox="0 0 10429.826 11077.554"
   id="svg58"
   sodipodi:docname="fire-life-ring.svg"
   inkscape:version="1.4.2 (f4327f4, 2025-05-13)"
   xmlns:inkscape="http://www.inkscape.org/namespaces/inkscape"
   xmlns:sodipodi="http://sodipodi.sourceforge.net/DTD/sodipodi-0.dtd"
   xmlns="http://www.w3.org/2000/svg"
   xmlns:svg="http://www.w3.org/2000/svg">
  <sodipodi:namedview
     id="namedview58"
     pagecolor="#ffffff"
     bordercolor="#000000"
     borderopacity="0.25"
     inkscape:showpageshadow="2"
     inkscape:pageopacity="0.0"
     inkscape:pagecheckerboard="0"
     inkscape:deskcolor="#d1d1d1"
     inkscape:document-units="mm"
     inkscape:zoom="1.1518729"
     inkscape:cx="208.7904"
     inkscape:cy="240.912"
     inkscape:window-width="2520"
     inkscape:window-height="1574"
     inkscape:window-x="-11"
     inkscape:window-y="2149"
     inkscape:window-maximized="1"
     inkscape:current-layer="svg58" />
  <defs
     id="defs1">
    <style
       type="text/css"
       id="style1">.fil8 {fill:#B01800} .fil3 {fill:#D81000} .fil1 {fill:#E83000} .fil0 {fill:#F76000} .fil7 {fill:#FE9018} .fil6 {fill:#FEA828} .fil10 {fill:#FF7800} .fil9 {fill:#FFD078} .fil4 {fill:#FFD840} .fil2 {fill:#FFE858} .fil5 {fill:#FFF8B0}</style>
  </defs>
  <path
     class="fil0"
     d="m 7109.9327,9716.3376 c -3316,279 -3516,-110 -5199,-2869 208,553 416,998 686,1523 -1651.00002,-1245 1339,1190 1432,1264 684,541.0004 1375,547.0004 2212,843.0004 -24,176 -2093,-412 -2377,-550.0004 -1548,-755 -1911,-2444 -2680,-3832 -771.00002,-1393 834,2628 -203.00002,730 -889,-1628 -180,1392 1237.00002,2690 663,607.0004 1427,989.0004 2224,1383.0004 -1063,-771 -1851,-1427.0004 -2790,-2346.0004 1891,1744.0004 1605,1615.0004 4058,2344.0004 874,260 -245,212 253,-93 781,-385 2216,-533 2505,-1311.0004 165,-443 854,-830 520,-704 -298,112 -1598,774 -1879,928 z"
     id="path1" />
  <path
     class="fil1"
     d="m 9686.9327,6260.3376 c -275,1245 -527,1242 -782,2090 -258,858 1235.0003,-26 -968,1336 -891,551.0004 -2209,1264.0004 -215,510.0004 1821,-688.0004 2416.0003,-1663.0004 2440.0003,-3831.0004 -128,823 -61,1144 -421.0003,188 -172,497 -62,-30 -54,-293 z"
     id="path2" />
  <path
     class="fil0"
     d="m 10037.933,7299.3376 c -255.0003,1716 -417.0003,1911 -1711.0003,3043.0004 2993.0003,-2654.0004 2342.0003,-4618.0004 573,-7797.0004 498,2302 1191.0003,1831 1137.0003,4754 z"
     id="path3" />
  <path
     class="fil2"
     d="m 4869.9327,919.33764 c 31,-634 -944,-129 -1347,11 -1513,557.99996 -2039,943.99996 -2766.00002,2400.99996 1733.00002,-1606 1879.00002,-1669 4113.00002,-2411.99996 z"
     id="path4" />
  <path
     class="fil3"
     d="m 9721.9327,6753.3376 c 1064.0003,412 544.0003,-567 351.0003,-1251 -671.0003,-2383 -390.0003,155 -364.0003,979 3,90 8,181 12,271 z"
     id="path5" />
  <path
     class="fil4"
     d="m 5120.9327,1142.3376 c -3102,598 -4683.00002,813 -4417.00002,4430 260,1767 424.00002,-1434 441.00002,-1615 356,-1419 892,-1697 2168,-2283 -2365.00002,1789 -576,918 859,333 560,-228 613,-376 948,-865 z"
     id="path6" />
  <path
     class="fil5"
     d="m 4263.9327,572.33764 c -2064,283 -2575,340 -3488.00002,2315.99996 1365.00002,-1848 1401.00002,-1528 3496.00002,-2169.99996 222,-70 163,-85 -7,-146 z"
     id="path7" />
  <path
     class="fil6"
     d="m 1912.9327,7521.3376 c -990.00002,-2813 -837,-2724 824,-5105 333,-514 -1093,1154 -1260,1583 -334,3283 416,5546 3861,6408.0004 1318,293 -1375,-747.0004 -1499,-814.0004 -922,-498 -1369,-1225 -1926,-2072 z"
     id="path8" />
  <path
     class="fil7"
     d="m 631.93268,3546.3376 c -142,781 -255,1547 -363,2333 -521,-428 -159,-74 38,411 1246.00002,2843 524,-27 368,-1198 l -21,-270 c -19,-415 -16,-858 -22,-1276 z"
     id="path9" />
  <path
     class="fil8"
     d="m 8853.9327,3093.3376 c -239,-313 -533,-674 -809,-954 211,289 557,668 809,954 z"
     id="path10" />
  <path
     class="fil1"
     d="m 8853.9327,3093.3376 c 681,900 598,688 -16,-31 -336,-393 -115,-75 16,31 z"
     id="path11" />
  <path
     class="fil9"
     d="m 631.93268,3546.3376 c -334,-1242 -385,793 -403,1059 -142,2075 -15,1559 214,-10 51,-352 119,-700 189,-1048 z"
     id="path12" />
  <path
     class="fil7"
     d="m 1288.9327,4020.3376 c 641,-1466 874,-1638 2315,-2302 -2048,1232 -3493.00002,2503 -2590,5103 447,852 196,-675 171,-921 -26,-299 -57,-598 -86,-896 17,-351 101,-647 191,-983 z"
     id="path13" />
  <path
     class="fil0"
     d="m 766.93268,7317.3376 c -43,-1618 -18,-1959 891.00002,-3325 -650,407 -646,661 -398,-149 -388.00002,143 -522.00002,2018 -593.00002,2457 -133,26 115,-1934 256,-2276 297.00002,-597 772.00002,-1045 1200.00002,-1553 -217,-248 -12,-479 185,-820 310,-538 369,-792.99996 783,-1332.99996 613,-799 -680,75 -1082,770.99996 -326,563 1034,-1043.99996 30,548 -216,323 -920,1284 -1001,1575 108,0 -182.00002,287 -272.00002,550 -384,1334 -477,3724 477.00002,4831 1008,1169 -233,85 -475.00002,-1275 z"
     id="path14" />
  <path
     class="fil10"
     d="m 3845.9327,2833.3376 c -884,-173 -932,64 -787,-266 397,-909 -1766,1129 -2010,1842 708,-518 703,-805 203,315 -532.00002,1194 -633.00002,2350 -191,3584 -626.00002,-2471 -43,-3579 2039,-4938 262,-171 500,-344 746,-537 z"
     id="path15" />
  <path
     class="fil1"
     d="m 4260.9327,10524.338 c -1672,-822.0004 -2951,-1241.0004 -3508.00002,-3162.0004 387.00002,1040 153,893 982.00002,1740 -1454.00002,-1630 -1412.00002,-3002 -1000.00002,-5048 27,-125 469.00002,-1454 152,-632 -570,1620 -817,4473 716.00002,5665 152,118 3313,2181.0004 1622,916.0004 184,101 1432,1019 857,451 -110,-109 139,47 179,69 z"
     id="path16" />
  <path
     class="fil0"
     d="m 2953.9327,9969.3376 c -2811.00002,-1587 -2248.00002,-2067 -2501.00002,-4977 52,1370 -147,3154 1056.00002,4095 731,571 2687,2041.0004 3588,1918.0004 -7,-6 -1831,-869 -2142,-1035.0004 z"
     id="path17" />
  <path
     class="fil2"
     d="m 3353.9327,2027.3376 c 279,729 37,156 673,233 409,50 -2,-278 -44,-573 -47,-340 54,-1463.99996 -630,-940.99996 -382,290.99996 -562,943.99996 1,1281.99996 z"
     id="path18" />
  <path
     class="fil3"
     d="m 4260.9327,10524.338 c -433,-143 -12,-52 -836,-393 -578,-239.0004 739,456 772,470 1674,718 2789,187 4354,-663.0004 2623.0003,-1425 -747,284.0004 -1225,496.0004 -1128,501 -1901,509 -3065,89 z"
     id="path19" />
  <path
     class="fil4"
     d="m 3032.9327,2325.3376 c 671,-648 -149,207 65,-1164 163,-705.99996 344,-252.99996 600,-573.99996 -793,257 -1196,538.99996 -1457,1351.99996 1292,-974.99996 -195,440 -52,761 100,224 88,-57 0,217 -52,162 714,-486 844,-592 z"
     id="path20" />
  <path
     class="fil6"
     d="m 3845.9327,2833.3376 c 688,-729 1157,-1288 651,-2308.99996 -390,-787 106,767.99996 17,1082.99996 -203,714 -372,601 -965,703 -317,54 -6,-554 -586,42 24,85 345,-104 -19,382 389,-104 537,-52 902,98 z"
     id="path21" />
  <path
     class="fil5"
     d="m 4250.9327,2013.3376 c 433,-642 373,-693 119,-1404.99996 -872,30 -372,6 -379,1202.99996 -2,242 6,206 260,202 z"
     id="path22" />
  <path
     class="fil6"
     d="m 1332.9327,3795.3376 c 1015,-851 1067,-1573 429,-1001 -999.00002,1138 -1086.00002,2136 -1116.00002,3581 71,-1320 12,-1413 687.00002,-2580 z"
     id="path23" />
  <path
     class="fil7"
     d="m 3687.9327,543.33764 c -132,-407 -9,-326 400,-327 -1002,-228 -1116,-100 -1519,886.99996 -245,600 295,-262.99996 1119,-560.99996 z"
     id="path24" />
  <path
     class="fil8"
     d="m 8489.9327,10065.338 c -1744,859 -2560,1264 -4527,783 1785,458 2652,215 4280,-598 78,-39 246,-108 303,-186 z"
     id="path25" />
  <path
     class="fil1"
     d="m 8489.9327,10065.338 c -1481,663 -2100,914 -3751,941 1719,133 2264,-162 3751,-941 z"
     id="path26" />
  <path
     class="fil9"
     d="m 3687.9327,543.33764 c 169,135 780,272 634,-282 -64,-245 -468,-53 -703,-4 13,130 24,166 69,287 z"
     id="path27" />
  <path
     class="fil7"
     d="m 2159.9327,2444.3376 c 175,548 496,-736 514,-865 -660,417 -169,420 -445,196 -89,139 -369,642 -69,669 z"
     id="path28" />
  <path
     class="fil0"
     d="m 549.93268,6555.3376 c 118,559 194,819 439,1337 -461,-1232 -570,-1994 -297,-3297 -983,4491 3788.00002,7788.0004 7419.00002,5483.0004 -366,185 -668,343 -1066,468 4621.0003,-1662.0004 4356.0003,-7719.0004 -493,-8801.0004 2257,307 3706.0003,2221 3827.0003,4377 -8,-272 -251,-1782 -39,-755 754,3658 -3380.0003,6723.0004 -6980.0003,5000.0004 -1603,-767.0004 -2515.00002,-2113.0004 -2811.00002,-3811.0004 z"
     id="path29" />
  <path
     class="fil10"
     d="m 4205.9327,926.33764 c -4276.00002,1664.99996 -4922.00002,6902.99996 -1104,9203.00036 691,416 -311,-161.0004 -455,-264.0004 -1756.00002,-1252 -2375.00002,-3202 -1958.00002,-5244 -381,1521 -30,-296 240,-864 631.00002,-1326 2161.00002,-2784.99996 3667.00002,-3012.99996 295,-45 -326,158 -390,181 z"
     id="path30" />
  <path
     class="fil1"
     d="m 437.93268,5718.3376 c 214,-1097 1,-200 64,497 522.00002,5797.0004 8663.00002,6194.0004 9808.00032,863 113,-526 103,-920 69,-1454 642,4339 -5096.0003,7085.0004 -8340.0003,3895 -1028,-1011 -1605.00002,-2380 -1601.00002,-3801 z"
     id="path31" />
  <path
     class="fil0"
     d="m 4530.9327,10806.338 c -438,-117 683,73 902,76 2666,35 4669.0003,-1779.0004 4984.0003,-4333.0004 -321,4579.0004 -6588.0003,5948.0004 -9054.0003,2361 -143,-208 494,525 552,578 757,701.0004 1605,1117.0004 2616,1319.0004 z"
     id="path32" />
  <path
     class="fil2"
     d="m 1477.9327,8608.3376 c -1198.00002,-1880 -1185.00002,-3933 134,-5750 -3570,5227 3207,10385.0004 7276,6505 755,-719 895,-1198 1269.0003,-2100 -940.0003,3782.0004 -6054.0003,4795.0004 -8679.0003,1345 z"
     id="path33" />
  <path
     class="fil3"
     d="m 437.93268,5718.3376 c 49,2031 772.00002,3171 2368.00002,4383.0004 171,130 -560,-358.0004 -623,-411.0004 -1016,-847 -1997.00002,-2567 -1780.00002,-3885 l 35,-88 z"
     id="path34" />
  <path
     class="fil4"
     d="m 1340.9327,8421.3376 c 1712,2391.0004 4843,3142.0004 7229,1273 847,-663 1266,-1403 1590.0003,-2381 -409.0003,2322 -3328.0003,3928.0004 -5810.0003,3302.0004 -1340,-338 -2265,-1067.0004 -3009,-2194.0004 z"
     id="path35" />
  <path
     class="fil6"
     d="m 4205.9327,927.33764 c -2925,1202.99996 -4461.00002,4237.99996 -3041,7071.99996 1856,3704.0004 7465,3638.0004 8921.0003,-654 147,-433 -76,286 -115.0003,381 -2079,5077.0004 -9828.00002,3122.0004 -9311.00002,-2379 69,-736 268,-1282 598.00002,-1940 -857.00002,1663 -899.00002,3387 94,5020 318,524 -361.00002,-660 -446.00002,-893 -1036,-2802 525.00002,-5518 3302.00002,-6606.99996 z"
     id="path36" />
  <path
     class="fil5"
     d="m 852.93268,4359.3376 c -727,2783 705.00002,5555 3626.00002,6202.0004 2305,510 4270,-565.0004 5370,-2538.0004 -420,1252 -2019,2304.0004 -3322,2577.0004 -3677,770 -6695.00002,-2592.0004 -5674.00002,-6241.0004 z"
     id="path37" />
  <path
     class="fil6"
     d="m 3596.9327,10391.338 c -701,-334 -1133,-630.0004 -1679,-1174.0004 1842,1781.0004 4232,2048.0004 6436,686 -1357,1074.0004 -3191,1127.0004 -4757,488.0004 z"
     id="path38" />
  <path
     class="fil7"
     d="m 10196.933,7110.3376 c 285,-1478 -10,-3137 -1630.0003,-4479 956,465 1699.0003,2163 1772.0003,3195 40,564 9,790 -141,1284 z"
     id="path39" />
  <path
     class="fil8"
     d="m 313.93268,6119.3376 c 37,788 159,1205 483,1943 -455,-967 -841,-2368 -415,-3395 -41,565 -109,841 -69,1452 z"
     id="path40" />
  <path
     class="fil1"
     d="m 313.93268,6119.3376 c 119,959 343,1608 845.00002,2433 312,512 -232.00002,-228 -370.00002,-549 -296,-687 -400,-1144 -474,-1884 z"
     id="path41" />
  <path
     class="fil9"
     d="m 10196.933,7110.3376 c -6,6 -370.0003,974 -426.0003,1079 -120,227 -1081,1549 -394,619 1017.0003,-1376 1058.0003,-2639 643.0003,-4198 -108.0003,-408 240,817 261,976 69,533 16,1001 -84,1525 z"
     id="path42" />
  <path
     class="fil7"
     d="m 7236.9327,10474.338 c -557,172 -877,249 -1468,286 1791,-153 3040,-917.0004 3990,-2383.0004 -282,874 -1669,1763.0004 -2522,2098.0004 z"
     id="path43" />
  <path
     class="fil0"
     d="m 1575.9327,2467.3376 c 1246,-706 559,-722 812,-994 225,139 -198,1111 332,704 -206,546 -174,510 -632,864 798,83 656,-265 1079,-685 360,72 -294,740 481,295 609,570 1091,470 -414,1171 -24,-20 696,-825 164,-628 -127,47 -1049,942 -716,489 -334,112 -1670,-662 -1162,-954 268,-154 -50,-53 56,-262 z"
     id="path44" />
  <path
     class="fil10"
     d="m 3561.9327,127.33764 c -40,142 -208,497 -121,620 -399,538.99996 9,7 138,408.99996 -1273,1333 -963,1575 -1155,359 -982,233 -515,1045 -1305,979 795,-1050 886,-1978.99996 2204,-2357.99996 81,-15 159,-11 241,-9 z"
     id="path45" />
  <path
     class="fil1"
     d="m 944.93268,3402.3376 c 193.00002,-570 800.00002,-1343 500.00002,-641 -202,473 773,884 1113,915 407,36 41,179 -295,378 -766,455 -625,-195 -876,330 -155,-380 188,-1317 -308,-727 -24,-127 88,-306 -133.00002,-254 z"
     id="path46" />
  <path
     class="fil0"
     d="m 1474.9327,4324.3376 c 26,-377 -132,-49 694,-125 9,84 -513,358 -535,1319 -21,906 -165,-892 -175,95 -2,148 90,1066 -133,1045 -140,-328 -194,-1500 -72,-1838 60,-166 145,-337 221,-496 z"
     id="path47" />
  <path
     class="fil2"
     d="m 3846.9327,1067.3376 c -422,-835.99996 14,-179.99996 130,-584.99996 12,-183 472,-228 268,48 -19,311 901,1488.99996 -43,1753.99996 -229,64 -471,-782 -355,-1216 z"
     id="path48" />
  <path
     class="fil3"
     d="m 944.93268,3402.3376 c 335.00002,-127 -161,289 214.00002,100 438,-220 81,1413 -195.00002,1461 -234,-501 -208,-1057 -20,-1561 z"
     id="path49" />
  <path
     class="fil4"
     d="m 3581.9327,1171.3376 c 407,-167 155,138 443,900 263,695 276,-203 487,48 111,131 -1817,1177 -802,166 103,-102 25,-351 -413,-164 -280,119 48,30 -129,-330 -128,-259 180,-416 413,-619 z"
     id="path50" />
  <path
     class="fil6"
     d="m 3561.9327,127.33764 c 994,22 1635,373 1540,1518.99996 -27,333 -166,712 -137,55 42,-948.99996 -37,-937.99996 -845,-1404.99996 -344,391 202,42 -471,434 357,623.99996 132,191 -97,485.99996 -83,-564.99996 228,135 -258,-285.99996 127,-265 209,-507 268,-803 z"
     id="path51" />
  <path
     class="fil5"
     d="m 4343.9327,439.33764 c 638,377 1017,1145.99996 236,1565.99996 -81,-535 162,-714 -313,-1264.99996 -128,-149 -69,-162 77,-301 z"
     id="path52" />
  <path
     class="fil6"
     d="m 2719.9327,2178.3376 c 590,-1011 374,-296 584,105 -141,135 -1002,980 -1180,793 34,-110 365,-264 595,-897 z"
     id="path53" />
  <path
     class="fil7"
     d="m 4507.9327,2240.3376 c -67,526 -91,464 307,128 -253,379 -473,1029 -1020,526 -348,-320 75,-285 443,-488 94,-52 181,-109 270,-166 z"
     id="path54" />
  <path
     class="fil8"
     d="m 875.93268,5672.3376 c 240.00002,661 349.00002,766 353.00002,1565 -9,5 -555.00002,-877 -353.00002,-1565 z"
     id="path55" />
  <path
     class="fil1"
     d="m 875.93268,5672.3376 c 62,-1961 645.00002,1734 56,150 z"
     id="path56" />
  <path
     class="fil9"
     d="m 4507.9327,2240.3376 c 59,-288 231,-341 462,-499 -20,782 128,460 -492,903 5,-138 16,-267 30,-404 z"
     id="path57" />
  <path
     class="fil7"
     d="m 3303.9327,2283.3376 c -156,-180 135,-222 321,-307 311,673 -410,282 -141,764 -347,162 -136,155 -229,-379 4,3 39,-62 49,-78 z"
     id="path58" />
</svg>
