<?xml version="1.0" encoding="UTF-8" standalone="no"?>
<!-- Created with Inkscape (http://www.inkscape.org/) -->

<svg
   version="1.1"
   id="svg1"
   width="101.33333"
   height="144"
   viewBox="0 0 101.33333 144"
   sodipodi:docname="trash-open.svg"
   inkscape:version="1.4.2 (f4327f4, 2025-05-13)"
   xmlns:inkscape="http://www.inkscape.org/namespaces/inkscape"
   xmlns:sodipodi="http://sodipodi.sourceforge.net/DTD/sodipodi-0.dtd"
   xmlns="http://www.w3.org/2000/svg"
   xmlns:svg="http://www.w3.org/2000/svg">
  <defs
     id="defs1" />
  <sodipodi:namedview
     id="namedview1"
     pagecolor="#ffffff"
     bordercolor="#000000"
     borderopacity="0.25"
     inkscape:showpageshadow="2"
     inkscape:pageopacity="0.0"
     inkscape:pagecheckerboard="0"
     inkscape:deskcolor="#d1d1d1"
     inkscape:zoom="8.9791667"
     inkscape:cx="50.617169"
     inkscape:cy="72"
     inkscape:window-width="2520"
     inkscape:window-height="1574"
     inkscape:window-x="-11"
     inkscape:window-y="2149"
     inkscape:window-maximized="1"
     inkscape:current-layer="g1" />
  <g
     inkscape:groupmode="layer"
     inkscape:label="Image"
     id="g1">
    <path
       style="fill:#000000"
       d="M 14.108803,141.17804 C 12.022587,139.43867 11.617915,136.2926 8.1749843,95.046278 4.8808463,55.582495 4.6507503,50.520696 6.0536423,48.379612 l 1.573573,-2.401576 H 51.122623 c 32.40754,0 43.821705,0.326298 44.775405,1.28 1.83628,1.836277 1.72989,4.379193 -2.10919,50.414242 -2.963269,35.533062 -3.742364,41.837312 -5.371717,43.466672 -1.752638,1.75263 -4.724414,1.90575 -36.987585,1.90575 -31.847239,0 -35.288259,-0.17211 -37.320733,-1.86666 z m 71.211953,-5.86667 c 0.489457,-1.32 2.167747,-18.96 3.729533,-39.200002 1.561785,-20.239999 3.111629,-38.599999 3.444099,-40.799999 l 0.60449,-4 H 51.405124 c -22.931565,0 -41.6920247,0.36 -41.6899097,0.8 0.0048,1.003542 3.8725497,50.482911 5.3988347,69.066671 0.626379,7.62666 1.331957,14.46666 1.567951,15.2 0.331282,1.02943 8.10101,1.33333 34.088957,1.33333 H 84.430833 Z M 31.044701,93.978036 V 64.111369 h 2.666666 2.666667 V 93.978036 123.8447 h -2.666667 -2.666666 z m 18.133332,0 V 64.111369 H 51.8447 54.511366 V 93.978036 123.8447 H 51.8447 49.178033 Z m 18.133333,0 V 64.111369 h 2.666666 2.666667 V 93.978036 123.8447 H 69.978032 67.311366 Z M 49.711367,30.567602 C 26.244701,24.581728 5.7247023,19.351163 4.1113683,18.944126 c -2.622551,-0.661659 -2.932703,-1.218214 -2.927384,-5.253079 0.0033,-2.482156 0.505834,-6.313011 1.116804,-8.513011 1.074393,-3.8687052 1.269172,-4.0000004 5.934083,-4.0000004 3.9034577,0 18.9073547,3.1627413 28.4098287,5.9886404 1.309549,0.389441 1.866667,-0.03937 1.866667,-1.43676 0,-3.33208 2.279904,-4.5524794 8.48,-4.5392203 7.924308,0.016946 17.222869,2.591414 19.519999,5.4044493 1.026666,1.257243 1.866666,3.654219 1.866666,5.326613 0,2.682058 0.534716,3.179183 4.533333,4.214639 25.925143,6.713403 27.385015,7.231282 27.976575,9.924519 0.27992,1.274416 -0.0972,5.19712 -0.8381,8.71712 -1.268482,6.026713 -1.531502,6.40796 -4.509432,6.536487 -1.73931,0.07507 -22.362376,-4.761046 -45.829041,-10.746921 z m 45.895931,1.410519 c 0.43397,-1.975869 0.2764,-3.614886 -0.38694,-4.024853 C 94.604888,27.572885 87.47358,25.648746 79.37301,23.677404 71.272439,21.706061 64.092893,19.658469 63.418463,19.127198 62.680213,18.545655 62.413674,16.510232 62.748692,14.012491 63.367792,9.396751 64.384817,9.996766 49.869474,6.414113 44.382993,5.059949 42.83233,5.812434 42.794367,9.847428 42.755307,13.999219 40.380217,13.989952 24.054434,9.774298 15.285748,7.510045 7.7839513,5.9696 7.3837743,6.351087 6.9835973,6.732573 6.5035973,8.479952 6.3171073,10.234152 l -0.339072,3.189453 42.1333317,10.859788 c 23.173332,5.972883 43.175191,10.897629 44.448581,10.94388 1.75434,0.06372 2.49261,-0.723445 3.04735,-3.249156 z"
       id="path1" />
  </g>
</svg>
