<?xml version="1.0" encoding="UTF-8" standalone="no"?>
<!-- Created with Inkscape (http://www.inkscape.org/) -->

<svg
   version="1.1"
   id="svg1"
   width="101.33333"
   height="144"
   viewBox="0 0 101.33333 144"
   sodipodi:docname="trash.svg"
   inkscape:version="1.4.2 (f4327f4, 2025-05-13)"
   xmlns:inkscape="http://www.inkscape.org/namespaces/inkscape"
   xmlns:sodipodi="http://sodipodi.sourceforge.net/DTD/sodipodi-0.dtd"
   xmlns="http://www.w3.org/2000/svg"
   xmlns:svg="http://www.w3.org/2000/svg">
  <defs
     id="defs1" />
  <sodipodi:namedview
     id="namedview1"
     pagecolor="#ffffff"
     bordercolor="#000000"
     borderopacity="0.25"
     inkscape:showpageshadow="2"
     inkscape:pageopacity="0.0"
     inkscape:pagecheckerboard="0"
     inkscape:deskcolor="#d1d1d1"
     inkscape:zoom="8.9791667"
     inkscape:cx="45.716937"
     inkscape:cy="72"
     inkscape:window-width="2520"
     inkscape:window-height="1574"
     inkscape:window-x="-11"
     inkscape:window-y="2149"
     inkscape:window-maximized="1"
     inkscape:current-layer="g1" />
  <g
     inkscape:groupmode="layer"
     inkscape:label="Image"
     id="g1">
    <path
       style="fill:#000000"
       d="m 14.423511,141.97803 c -1.173333,-1.17334 -2.135302,-2.97334 -2.137708,-4 -0.0024,-1.02667 -1.183046,-17.46667 -2.6236453,-36.53334 -1.4406,-19.066654 -2.944964,-40.446036 -3.343033,-47.509724 L 5.5953647,41.091897 7.4189617,39.2683 9.2425587,37.444702 H 51.667713 94.092867 l 1.89729,2.096479 1.89728,2.096479 -3.67111,49.071624 -3.671114,49.071616 -1.959506,2.16523 -1.959506,2.16523 H 51.591522 16.556844 Z M 89.898504,91.311369 c 1.911248,-25.226667 3.246313,-46.466667 2.96681,-47.2 L 92.357128,42.778036 H 51.756842 11.156557 l -0.671152,1.748993 c -0.5563863,1.449918 3.531362,63.074291 5.739955,86.532051 l 0.629034,6.68105 34.784557,-0.28105 34.784556,-0.28105 z M 31.973258,121.43171 c -0.284146,-0.74048 -0.389082,-15.26048 -0.233189,-32.266659 l 0.283441,-30.920349 2.4,-0.340854 2.4,-0.340854 V 90.170515 122.77803 H 34.6567 c -1.191746,0 -2.399295,-0.60585 -2.683442,-1.34632 z m 18.133333,0 c -0.284147,-0.74048 -0.389082,-15.26048 -0.23319,-32.266659 l 0.283442,-30.920349 2.399999,-0.340854 2.4,-0.340854 v 32.607521 32.607515 h -2.16681 c -1.191746,0 -2.399294,-0.60585 -2.683441,-1.34632 z m 18.133332,0 c -0.284147,-0.74048 -0.389082,-15.26048 -0.233189,-32.266659 l 0.283441,-30.920349 2.4,-0.340854 2.4,-0.340854 v 32.607521 32.607515 h -2.166811 c -1.191745,0 -2.399294,-0.60585 -2.683441,-1.34632 z M 1.2783819,31.410684 C 0.13355731,30.26586 0.44136191,16.186902 1.6610405,13.907911 L 2.7652364,11.844702 H 18.107133 c 17.788276,0 18.716377,-0.217233 18.716377,-4.3807877 0,-1.697233 0.96,-4.0458787 2.133333,-5.2192121 L 41.090176,0.11136894 H 51.10534 61.120503 l 2.197454,1.86666666 c 1.2086,1.0266666 2.611753,3.5466667 3.118117,5.5999997 l 0.920663,3.7333337 16.177325,0.294327 16.177325,0.294326 1.135793,2.122241 c 0.62468,1.167232 0.99491,5.594785 0.82273,9.839006 l -0.31307,7.716767 -49.67846,0.277093 C 24.355227,32.00753 1.6752274,31.80753 1.2783819,31.410684 Z M 97.090177,21.978036 v -4.266667 l -16.841516,-0.533333 -16.841513,-0.533334 -1.00882,-1.6 c -0.55485,-0.88 -1.016169,-3.16 -1.025152,-5.0666667 l -0.01633,-3.466666 H 51.223509 41.090176 v 4.1360587 c 0,6.099835 -0.968124,6.439801 -19.27457,6.768457 l -16.4587613,0.295484 -0.346212,3.023438 c -0.190417,1.66289 -0.0835,3.708054 0.237593,4.544807 l 0.583804,1.521371 45.6290723,-0.278141 45.629075,-0.278142 z"
       id="path1" />
  </g>
</svg>
